<svg width="60" height="24" viewBox="0 0 60 24" fill="none" xmlns="http://www.w3.org/2000/svg">
<path d="M7.75326 5.2417C3.52413 5.2417 0 7.03591 0 12.449C0 16.7373 2.36972 19.4378 7.86246 19.4378C14.3277 19.4378 14.7421 15.179 14.7421 15.179H11.6094C11.6094 15.179 10.9377 17.4722 7.67135 17.4722C5.01098 17.4722 3.09753 15.675 3.09753 13.156H15.0697V11.5753C15.0697 9.08328 13.4877 5.2417 7.75326 5.2417ZM7.64405 7.26191C10.1765 7.26191 11.9029 8.81332 11.9029 11.1385H3.16682C3.16682 8.67003 5.42025 7.26191 7.64405 7.26191Z" fill="white"/>
<path d="M15.0675 0V16.7193C15.0675 17.6684 14.9998 19.0009 14.9998 19.0009H17.9877C17.9877 19.0009 18.0949 18.0439 18.0949 17.1692C18.0949 17.1692 19.5712 19.4787 23.5852 19.4787C27.812 19.4787 30.6832 16.5441 30.6832 12.3397C30.6832 8.42839 28.0459 5.28259 23.592 5.28259C19.4211 5.28259 18.1251 7.53485 18.1251 7.53485V0H15.0675ZM22.8207 7.35058C25.6911 7.35058 27.5164 9.4809 27.5164 12.3397C27.5164 15.4052 25.4083 17.4107 22.8412 17.4107C19.7777 17.4107 18.1251 15.0187 18.1251 12.367C18.1251 9.89612 19.608 7.35058 22.8207 7.35058Z" fill="white"/>
<path d="M38.1088 5.2417C31.7464 5.2417 31.3383 8.72544 31.3383 9.28213H34.5052C34.5052 9.28213 34.6712 7.24826 37.8904 7.24826C39.9822 7.24826 41.6032 8.20574 41.6032 10.0465V10.7017H37.8904C32.9613 10.7017 30.3555 12.1437 30.3555 15.0698C30.3555 17.9495 32.7632 19.5163 36.0169 19.5163C40.4512 19.5163 41.8796 17.0661 41.8796 17.0661C41.8796 18.0406 41.9548 19.001 41.9548 19.001H44.77C44.77 19.001 44.6608 17.8106 44.6608 17.049V10.4663C44.6608 6.15005 41.1793 5.2417 38.1088 5.2417ZM41.6032 12.6674V13.541C41.6032 14.6804 40.9001 17.5131 36.7608 17.5131C34.4942 17.5131 33.5224 16.3819 33.5224 15.0698C33.5224 12.6827 36.7951 12.6674 41.6032 12.6674Z" fill="white"/>
<path d="M42.9556 5.78809H46.5182L51.6312 16.0315L56.7324 5.78809H59.9597L50.6679 24.0246H47.2826L49.9639 18.9409L42.9556 5.78809Z" fill="white"/>
</svg>