<svg width="146" height="75" viewBox="0 0 146 75" fill="none" xmlns="http://www.w3.org/2000/svg">
<g filter="url(#filter0_b_4001_2163)">
<rect x="0.641968" width="145" height="75" rx="12" fill="#F3F5FF" fill-opacity="0.14"/>
<path d="M18.9382 16.66V17.776H15.3982V20.236H18.1582V21.352H15.3982L15.3982 25H14.0302L14.0302 16.66H18.9382ZM23.074 25.108C22.45 25.108 21.886 24.968 21.382 24.688C20.878 24.4 20.482 24 20.194 23.488C19.906 22.968 19.762 22.368 19.762 21.688C19.762 21.016 19.91 20.42 20.206 19.9C20.502 19.38 20.906 18.98 21.418 18.7C21.93 18.42 22.502 18.28 23.134 18.28C23.766 18.28 24.338 18.42 24.85 18.7C25.362 18.98 25.766 19.38 26.062 19.9C26.358 20.42 26.506 21.016 26.506 21.688C26.506 22.36 26.354 22.956 26.05 23.476C25.746 23.996 25.33 24.4 24.802 24.688C24.282 24.968 23.706 25.108 23.074 25.108ZM23.074 23.92C23.426 23.92 23.754 23.836 24.058 23.668C24.37 23.5 24.622 23.248 24.814 22.912C25.006 22.576 25.102 22.168 25.102 21.688C25.102 21.208 25.01 20.804 24.826 20.476C24.642 20.14 24.398 19.888 24.094 19.72C23.79 19.552 23.462 19.468 23.11 19.468C22.758 19.468 22.43 19.552 22.126 19.72C21.83 19.888 21.594 20.14 21.418 20.476C21.242 20.804 21.154 21.208 21.154 21.688C21.154 22.4 21.334 22.952 21.694 23.344C22.062 23.728 22.522 23.92 23.074 23.92ZM29.2264 19.348C29.4264 19.012 29.6904 18.752 30.0184 18.568C30.3544 18.376 30.7504 18.28 31.2064 18.28V19.696H30.8584C30.3224 19.696 29.9144 19.832 29.6344 20.104C29.3624 20.376 29.2264 20.848 29.2264 21.52V25H27.8584V18.388H29.2264V19.348ZM38.5238 21.532C38.5238 21.78 38.5078 22.004 38.4758 22.204L33.4238 22.204C33.4638 22.732 33.6598 23.156 34.0118 23.476C34.3638 23.796 34.7958 23.956 35.3078 23.956C36.0438 23.956 36.5638 23.648 36.8678 23.032H38.3438C38.1438 23.64 37.7798 24.14 37.2518 24.532C36.7318 24.916 36.0838 25.108 35.3078 25.108C34.6758 25.108 34.1078 24.968 33.6038 24.688C33.1078 24.4 32.7158 24 32.4278 23.488C32.1478 22.968 32.0078 22.368 32.0078 21.688C32.0078 21.008 32.1438 20.412 32.4158 19.9C32.6958 19.38 33.0838 18.98 33.5798 18.7C34.0838 18.42 34.6598 18.28 35.3078 18.28C35.9318 18.28 36.4878 18.416 36.9758 18.688C37.4638 18.96 37.8438 19.344 38.1158 19.84C38.3878 20.328 38.5238 20.892 38.5238 21.532ZM37.0958 21.1C37.0878 20.596 36.9078 20.192 36.5558 19.888C36.2038 19.584 35.7678 19.432 35.2478 19.432C34.7758 19.432 34.3718 19.584 34.0358 19.888C33.6998 20.184 33.4998 20.588 33.4358 21.1L37.0958 21.1ZM39.4141 21.688C39.4141 21.008 39.5501 20.412 39.8221 19.9C40.1021 19.38 40.4861 18.98 40.9741 18.7C41.4621 18.42 42.0221 18.28 42.6541 18.28C43.4541 18.28 44.1141 18.472 44.6341 18.856C45.1621 19.232 45.5181 19.772 45.7021 20.476H44.2261C44.1061 20.148 43.9141 19.892 43.6501 19.708C43.3861 19.524 43.0541 19.432 42.6541 19.432C42.0941 19.432 41.6461 19.632 41.3101 20.032C40.9821 20.424 40.8181 20.976 40.8181 21.688C40.8181 22.4 40.9821 22.956 41.3101 23.356C41.6461 23.756 42.0941 23.956 42.6541 23.956C43.4461 23.956 43.9701 23.608 44.2261 22.912H45.7021C45.5101 23.584 45.1501 24.12 44.6221 24.52C44.0941 24.912 43.4381 25.108 42.6541 25.108C42.0221 25.108 41.4621 24.968 40.9741 24.688C40.4861 24.4 40.1021 24 39.8221 23.488C39.5501 22.968 39.4141 22.368 39.4141 21.688ZM46.6094 21.664C46.6094 21 46.7454 20.412 47.0174 19.9C47.2974 19.388 47.6734 18.992 48.1454 18.712C48.6254 18.424 49.1534 18.28 49.7294 18.28C50.2494 18.28 50.7014 18.384 51.0854 18.592C51.4774 18.792 51.7894 19.044 52.0214 19.348V18.388H53.4014V25L52.0214 25V24.016C51.7894 24.328 51.4734 24.588 51.0734 24.796C50.6734 25.004 50.2174 25.108 49.7054 25.108C49.1374 25.108 48.6174 24.964 48.1454 24.676C47.6734 24.38 47.2974 23.972 47.0174 23.452C46.7454 22.924 46.6094 22.328 46.6094 21.664ZM52.0214 21.688C52.0214 21.232 51.9254 20.836 51.7334 20.5C51.5494 20.164 51.3054 19.908 51.0014 19.732C50.6974 19.556 50.3694 19.468 50.0174 19.468C49.6654 19.468 49.3374 19.556 49.0334 19.732C48.7294 19.9 48.4814 20.152 48.2894 20.488C48.1054 20.816 48.0134 21.208 48.0134 21.664C48.0134 22.12 48.1054 22.52 48.2894 22.864C48.4814 23.208 48.7294 23.472 49.0334 23.656C49.3454 23.832 49.6734 23.92 50.0174 23.92C50.3694 23.92 50.6974 23.832 51.0014 23.656C51.3054 23.48 51.5494 23.224 51.7334 22.888C51.9254 22.544 52.0214 22.144 52.0214 21.688ZM57.5982 25.108C57.0782 25.108 56.6102 25.016 56.1942 24.832C55.7862 24.64 55.4622 24.384 55.2222 24.064C54.9822 23.736 54.8542 23.372 54.8382 22.972H56.2542C56.2782 23.252 56.4102 23.488 56.6502 23.68C56.8982 23.864 57.2062 23.956 57.5742 23.956C57.9582 23.956 58.2542 23.884 58.4622 23.74C58.6782 23.588 58.7862 23.396 58.7862 23.164C58.7862 22.916 58.6662 22.732 58.4262 22.612C58.1942 22.492 57.8222 22.36 57.3102 22.216C56.8142 22.08 56.4102 21.948 56.0982 21.82C55.7862 21.692 55.5142 21.496 55.2822 21.232C55.0582 20.968 54.9462 20.62 54.9462 20.188C54.9462 19.836 55.0502 19.516 55.2582 19.228C55.4662 18.932 55.7622 18.7 56.1462 18.532C56.5382 18.364 56.9862 18.28 57.4902 18.28C58.2422 18.28 58.8462 18.472 59.3022 18.856C59.7662 19.232 60.0142 19.748 60.0462 20.404H58.6782C58.6542 20.108 58.5342 19.872 58.3182 19.696C58.1022 19.52 57.8102 19.432 57.4422 19.432C57.0822 19.432 56.8062 19.5 56.6142 19.636C56.4222 19.772 56.3262 19.952 56.3262 20.176C56.3262 20.352 56.3902 20.5 56.5182 20.62C56.6462 20.74 56.8022 20.836 56.9862 20.908C57.1702 20.972 57.4422 21.056 57.8022 21.16C58.2822 21.288 58.6742 21.42 58.9782 21.556C59.2902 21.684 59.5582 21.876 59.7822 22.132C60.0062 22.388 60.1222 22.728 60.1302 23.152C60.1302 23.528 60.0262 23.864 59.8182 24.16C59.6102 24.456 59.3142 24.688 58.9302 24.856C58.5542 25.024 58.1102 25.108 57.5982 25.108ZM63.2044 19.504V23.164C63.2044 23.412 63.2604 23.592 63.3724 23.704C63.4924 23.808 63.6924 23.86 63.9724 23.86H64.8124V25H63.7324C63.1164 25 62.6444 24.856 62.3164 24.568C61.9884 24.28 61.8244 23.812 61.8244 23.164V19.504H61.0444V18.388H61.8244V16.744H63.2044V18.388H64.8124V19.504H63.2044ZM72.1332 21.532C72.1332 21.78 72.1172 22.004 72.0852 22.204H67.0332C67.0732 22.732 67.2692 23.156 67.6212 23.476C67.9732 23.796 68.4052 23.956 68.9172 23.956C69.6532 23.956 70.1732 23.648 70.4772 23.032H71.9532C71.7532 23.64 71.3892 24.14 70.8612 24.532C70.3412 24.916 69.6932 25.108 68.9172 25.108C68.2852 25.108 67.7172 24.968 67.2132 24.688C66.7172 24.4 66.3252 24 66.0372 23.488C65.7572 22.968 65.6172 22.368 65.6172 21.688C65.6172 21.008 65.7532 20.412 66.0252 19.9C66.3052 19.38 66.6932 18.98 67.1892 18.7C67.6932 18.42 68.2692 18.28 68.9172 18.28C69.5412 18.28 70.0972 18.416 70.5852 18.688C71.0732 18.96 71.4532 19.344 71.7252 19.84C71.9972 20.328 72.1332 20.892 72.1332 21.532ZM70.7052 21.1C70.6972 20.596 70.5172 20.192 70.1652 19.888C69.8132 19.584 69.3772 19.432 68.8572 19.432C68.3852 19.432 67.9812 19.584 67.6452 19.888C67.3092 20.184 67.1092 20.588 67.0452 21.1H70.7052ZM73.0235 21.664C73.0235 21 73.1595 20.412 73.4315 19.9C73.7115 19.388 74.0875 18.992 74.5595 18.712C75.0395 18.424 75.5715 18.28 76.1555 18.28C76.5875 18.28 77.0115 18.376 77.4275 18.568C77.8515 18.752 78.1875 19 78.4355 19.312V16.12H79.8155V25H78.4355V24.004C78.2115 24.324 77.8995 24.588 77.4995 24.796C77.1075 25.004 76.6555 25.108 76.1435 25.108C75.5675 25.108 75.0395 24.964 74.5595 24.676C74.0875 24.38 73.7115 23.972 73.4315 23.452C73.1595 22.924 73.0235 22.328 73.0235 21.664ZM78.4355 21.688C78.4355 21.232 78.3395 20.836 78.1475 20.5C77.9635 20.164 77.7195 19.908 77.4155 19.732C77.1115 19.556 76.7835 19.468 76.4315 19.468C76.0795 19.468 75.7515 19.556 75.4475 19.732C75.1435 19.9 74.8955 20.152 74.7035 20.488C74.5195 20.816 74.4275 21.208 74.4275 21.664C74.4275 22.12 74.5195 22.52 74.7035 22.864C74.8955 23.208 75.1435 23.472 75.4475 23.656C75.7595 23.832 76.0875 23.92 76.4315 23.92C76.7835 23.92 77.1115 23.832 77.4155 23.656C77.7195 23.48 77.9635 23.224 78.1475 22.888C78.3395 22.544 78.4355 22.144 78.4355 21.688ZM86.0975 19.348C86.2975 19.012 86.5615 18.752 86.8895 18.568C87.2255 18.376 87.6215 18.28 88.0775 18.28V19.696H87.7295C87.1935 19.696 86.7855 19.832 86.5055 20.104C86.2335 20.376 86.0975 20.848 86.0975 21.52V25H84.7295V18.388H86.0975V19.348ZM95.3949 21.532C95.3949 21.78 95.3789 22.004 95.3469 22.204H90.2949C90.3349 22.732 90.5309 23.156 90.8829 23.476C91.2349 23.796 91.6669 23.956 92.1789 23.956C92.9149 23.956 93.4349 23.648 93.7389 23.032H95.2149C95.0149 23.64 94.6509 24.14 94.1229 24.532C93.6029 24.916 92.9549 25.108 92.1789 25.108C91.5469 25.108 90.9789 24.968 90.4749 24.688C89.9789 24.4 89.5869 24 89.2989 23.488C89.0189 22.968 88.8789 22.368 88.8789 21.688C88.8789 21.008 89.0149 20.412 89.2869 19.9C89.5669 19.38 89.9549 18.98 90.4509 18.7C90.9549 18.42 91.5309 18.28 92.1789 18.28C92.8029 18.28 93.3589 18.416 93.8469 18.688C94.3349 18.96 94.7149 19.344 94.9869 19.84C95.2589 20.328 95.3949 20.892 95.3949 21.532ZM93.9669 21.1C93.9589 20.596 93.7789 20.192 93.4269 19.888C93.0749 19.584 92.6389 19.432 92.1189 19.432C91.6469 19.432 91.2429 19.584 90.9069 19.888C90.5709 20.184 90.3709 20.588 90.3069 21.1H93.9669ZM99.2972 23.776L101.169 18.388H102.621L100.101 25H98.4692L95.9612 18.388L97.4252 18.388L99.2972 23.776ZM109.715 21.532C109.715 21.78 109.699 22.004 109.667 22.204H104.615C104.655 22.732 104.851 23.156 105.203 23.476C105.555 23.796 105.987 23.956 106.499 23.956C107.235 23.956 107.755 23.648 108.059 23.032H109.535C109.335 23.64 108.971 24.14 108.443 24.532C107.923 24.916 107.275 25.108 106.499 25.108C105.867 25.108 105.299 24.968 104.795 24.688C104.299 24.4 103.907 24 103.619 23.488C103.339 22.968 103.199 22.368 103.199 21.688C103.199 21.008 103.335 20.412 103.607 19.9C103.887 19.38 104.275 18.98 104.771 18.7C105.275 18.42 105.851 18.28 106.499 18.28C107.123 18.28 107.679 18.416 108.167 18.688C108.655 18.96 109.035 19.344 109.307 19.84C109.579 20.328 109.715 20.892 109.715 21.532ZM108.287 21.1C108.279 20.596 108.099 20.192 107.747 19.888C107.395 19.584 106.959 19.432 106.439 19.432C105.967 19.432 105.563 19.584 105.227 19.888C104.891 20.184 104.691 20.588 104.627 21.1H108.287ZM114.397 18.28C114.917 18.28 115.381 18.388 115.789 18.604C116.205 18.82 116.529 19.14 116.761 19.564C116.993 19.988 117.109 20.5 117.109 21.1V25L115.753 25V21.304C115.753 20.712 115.605 20.26 115.309 19.948C115.013 19.628 114.609 19.468 114.097 19.468C113.585 19.468 113.177 19.628 112.873 19.948C112.577 20.26 112.429 20.712 112.429 21.304V25H111.061V18.388H112.429V19.144C112.653 18.872 112.937 18.66 113.281 18.508C113.633 18.356 114.005 18.28 114.397 18.28ZM124.842 18.388V25H123.474V24.22C123.258 24.492 122.974 24.708 122.622 24.868C122.278 25.02 121.91 25.096 121.518 25.096C120.998 25.096 120.53 24.988 120.114 24.772C119.706 24.556 119.382 24.236 119.142 23.812C118.91 23.388 118.794 22.876 118.794 22.276V18.388H120.15V22.072C120.15 22.664 120.298 23.12 120.594 23.44C120.89 23.752 121.294 23.908 121.806 23.908C122.318 23.908 122.722 23.752 123.018 23.44C123.322 23.12 123.474 22.664 123.474 22.072V18.388H124.842ZM132.707 21.532C132.707 21.78 132.691 22.004 132.659 22.204H127.607C127.647 22.732 127.843 23.156 128.195 23.476C128.547 23.796 128.979 23.956 129.491 23.956C130.227 23.956 130.747 23.648 131.051 23.032H132.527C132.327 23.64 131.963 24.14 131.435 24.532C130.915 24.916 130.267 25.108 129.491 25.108C128.859 25.108 128.291 24.968 127.787 24.688C127.291 24.4 126.899 24 126.611 23.488C126.331 22.968 126.191 22.368 126.191 21.688C126.191 21.008 126.327 20.412 126.599 19.9C126.879 19.38 127.267 18.98 127.763 18.7C128.267 18.42 128.843 18.28 129.491 18.28C130.115 18.28 130.671 18.416 131.159 18.688C131.647 18.96 132.027 19.344 132.299 19.84C132.571 20.328 132.707 20.892 132.707 21.532ZM131.279 21.1C131.271 20.596 131.091 20.192 130.739 19.888C130.387 19.584 129.951 19.432 129.431 19.432C128.959 19.432 128.555 19.584 128.219 19.888C127.883 20.184 127.683 20.588 127.619 21.1H131.279Z" fill="#F2F2F3"/>
<path d="M47.678 49.3118V41.9905H39.7631" stroke="#4C57FF" stroke-width="1.5" stroke-linecap="round" stroke-linejoin="round"/>
<path d="M47.6791 41.9905L33.6049 55.0094" stroke="#4C57FF" stroke-width="1.5" stroke-linecap="round" stroke-linejoin="round"/>
<path d="M62.1956 58.0655V55.7091C60.7119 55.4473 59.6355 54.9818 59.1119 54.9818C58.6755 54.9818 58.5882 55.2436 58.3555 55.8545H57.8319L57.5409 49.3962H58.1809C58.9373 52.0436 60.101 54.0509 62.1956 54.7782V46.9816C59.4901 46.0798 57.8609 44.6543 57.8609 41.687C57.8609 39.1851 59.2864 36.7414 62.1956 36.0723V33.5995H63.0974V35.9268C63.3011 35.9268 63.5047 35.8978 63.7374 35.8978C64.1156 35.8978 64.4647 35.9268 64.8138 35.985V33.5995H65.7157V36.1305C66.792 36.3923 67.5193 36.7996 68.1012 36.7996C68.5084 36.7996 68.6248 36.5959 68.8285 36.2178H69.2648L69.4103 41.687H68.7994C68.1303 39.4178 67.2575 37.7887 65.7157 37.0905V43.8979C68.2466 44.7416 70.4576 46.1089 70.4576 49.629C70.4576 52.6545 68.7412 55.04 65.7157 55.68V58.0655H64.8138V55.8255C64.552 55.8545 64.2611 55.8545 63.9993 55.8545C63.6792 55.8545 63.3883 55.8545 63.0974 55.8255V58.0655H62.1956ZM68.5375 51.2872C68.5375 49.629 67.5193 48.7562 65.7157 48.058V54.8072C67.4321 54.3127 68.5375 53.0618 68.5375 51.2872ZM64.0283 55.04C64.2902 55.04 64.552 55.04 64.8138 55.0109V47.738C64.2902 47.5635 63.7083 47.418 63.0974 47.2725V54.9818C63.3883 55.0109 63.6792 55.04 64.0283 55.04ZM63.0974 43.1415L64.8138 43.6361V36.8287C64.4647 36.7414 64.1156 36.7123 63.7374 36.7123C63.5047 36.7123 63.3011 36.7414 63.0974 36.7414V43.1415ZM59.8683 39.8251C59.8683 41.3961 60.7701 42.2106 62.1956 42.8215V36.916C60.6828 37.3232 59.8683 38.3996 59.8683 39.8251ZM78.9066 44.5088C77.4811 44.5088 76.172 45.0325 74.9502 45.7889L74.3974 45.527V35.9559L74.8629 35.6068C77.2775 35.9559 82.5431 36.5669 83.3867 36.5669C84.0558 36.5669 84.3176 36.2178 84.5504 35.345L85.1613 35.4323C84.6377 39.0105 84.1722 39.8542 83.0376 39.8542C82.3976 39.8542 81.583 39.6215 80.623 39.3015L75.4156 37.7014L75.2702 44.567C76.5502 43.9561 78.0048 43.5197 79.7212 43.5197C84.4631 43.5197 86.0922 46.5743 86.0922 49.5999C86.0922 53.789 82.9794 56.2909 78.4993 56.2909C75.6193 56.2909 72.9429 55.1563 72.9429 52.2472C72.9429 50.9381 73.5829 49.9781 74.9211 49.9781C76.0266 49.9781 76.812 50.6472 76.812 51.7526C76.812 52.189 76.7248 52.6836 76.5793 53.0908H75.6775C75.5611 53.3236 75.5029 53.5272 75.5029 53.7309C75.5029 54.6909 76.7248 55.3891 78.383 55.3891C81.1467 55.3891 82.194 53.3818 82.194 49.3671C82.194 46.0216 81.4085 44.5088 78.9066 44.5088ZM104.491 35.6359H111.065V36.4796H109.029V55.1563H111.065V56L103.298 56V55.1563L105.334 55.1563V36.7705H105.218L99.458 56H97.8288L91.6905 36.7414H91.5742V55.1563H93.6106V56H88.5196V55.1563H90.556V36.4796L88.5196 36.4796V35.6359L95.2106 35.6359L99.9525 50.909L104.491 35.6359Z" fill="white"/>
</g>
<defs>
<filter id="filter0_b_4001_2163" x="-38.148" y="-38.79" width="222.58" height="152.58" filterUnits="userSpaceOnUse" color-interpolation-filters="sRGB">
<feFlood flood-opacity="0" result="BackgroundImageFix"/>
<feGaussianBlur in="BackgroundImageFix" stdDeviation="19.395"/>
<feComposite in2="SourceAlpha" operator="in" result="effect1_backgroundBlur_4001_2163"/>
<feBlend mode="normal" in="SourceGraphic" in2="effect1_backgroundBlur_4001_2163" result="shape"/>
</filter>
</defs>
</svg>
