<svg width="251" height="100" viewBox="0 0 251 100" fill="none" xmlns="http://www.w3.org/2000/svg">
<g filter="url(#filter0_b_4001_2134)">
<rect x="0.833252" width="249.698" height="99.5" rx="12" fill="#F3F5FF" fill-opacity="0.22"/>
<path d="M22.2058 13.5897C22.1907 13.5553 22.1419 13.5553 22.1267 13.5897L20.0322 18.3423C20.0278 18.3522 20.02 18.3601 20.0101 18.3644L15.2567 20.4597C15.2223 20.4749 15.2223 20.5236 15.2567 20.5388L20.0101 22.6341C20.02 22.6384 20.0278 22.6463 20.0322 22.6562L22.1267 27.4103C22.1419 27.4447 22.1907 27.4447 22.2058 27.4103L24.3019 22.6569C24.3062 22.6471 24.3141 22.6392 24.324 22.6348L29.0766 20.5395C29.111 20.5244 29.111 20.4756 29.0766 20.4605L24.324 18.3652C24.3141 18.3608 24.3062 18.3529 24.3019 18.3431L22.2058 13.5897Z" stroke="white" stroke-width="1.16667"/>
<path d="M39.2092 24.584C38.6492 24.584 38.1452 24.488 37.6972 24.296C37.2492 24.096 36.8972 23.816 36.6412 23.456C36.3852 23.096 36.2572 22.676 36.2572 22.196H37.7212C37.7532 22.556 37.8932 22.852 38.1412 23.084C38.3972 23.316 38.7532 23.432 39.2092 23.432C39.6812 23.432 40.0492 23.32 40.3132 23.096C40.5772 22.864 40.7092 22.568 40.7092 22.208C40.7092 21.928 40.6252 21.7 40.4572 21.524C40.2972 21.348 40.0932 21.212 39.8452 21.116C39.6052 21.02 39.2692 20.916 38.8372 20.804C38.2932 20.66 37.8492 20.516 37.5052 20.372C37.1692 20.22 36.8812 19.988 36.6412 19.676C36.4012 19.364 36.2812 18.948 36.2812 18.428C36.2812 17.948 36.4012 17.528 36.6412 17.168C36.8812 16.808 37.2172 16.532 37.6492 16.34C38.0812 16.148 38.5812 16.052 39.1492 16.052C39.9572 16.052 40.6172 16.256 41.1292 16.664C41.6492 17.064 41.9372 17.616 41.9932 18.32H40.4812C40.4572 18.016 40.3132 17.756 40.0492 17.54C39.7852 17.324 39.4372 17.216 39.0052 17.216C38.6132 17.216 38.2932 17.316 38.0452 17.516C37.7972 17.716 37.6732 18.004 37.6732 18.38C37.6732 18.636 37.7492 18.848 37.9012 19.016C38.0612 19.176 38.2612 19.304 38.5012 19.4C38.7412 19.496 39.0692 19.6 39.4852 19.712C40.0372 19.864 40.4852 20.016 40.8292 20.168C41.1812 20.32 41.4772 20.556 41.7172 20.876C41.9652 21.188 42.0892 21.608 42.0892 22.136C42.0892 22.56 41.9732 22.96 41.7412 23.336C41.5172 23.712 41.1852 24.016 40.7452 24.248C40.3132 24.472 39.8012 24.584 39.2092 24.584ZM49.6914 22.796H46.1994L45.5994 24.5H44.1714L47.1594 16.148H48.7434L51.7314 24.5H50.2914L49.6914 22.796ZM49.3074 21.68L47.9514 17.804L46.5834 21.68H49.3074ZM55.3586 23.396H58.1786V24.5H53.9906V16.16H55.3586V23.396ZM61.6506 17.264V19.712H64.5306V20.828H61.6506V23.384H64.8906V24.5H60.2826V16.148H64.8906V17.264H61.6506ZM70.2836 24.584C69.7236 24.584 69.2196 24.488 68.7716 24.296C68.3236 24.096 67.9716 23.816 67.7156 23.456C67.4596 23.096 67.3316 22.676 67.3316 22.196H68.7956C68.8276 22.556 68.9676 22.852 69.2156 23.084C69.4716 23.316 69.8276 23.432 70.2836 23.432C70.7556 23.432 71.1236 23.32 71.3876 23.096C71.6516 22.864 71.7836 22.568 71.7836 22.208C71.7836 21.928 71.6996 21.7 71.5316 21.524C71.3716 21.348 71.1676 21.212 70.9196 21.116C70.6796 21.02 70.3436 20.916 69.9116 20.804C69.3676 20.66 68.9236 20.516 68.5796 20.372C68.2436 20.22 67.9556 19.988 67.7156 19.676C67.4756 19.364 67.3556 18.948 67.3556 18.428C67.3556 17.948 67.4756 17.528 67.7156 17.168C67.9556 16.808 68.2916 16.532 68.7236 16.34C69.1556 16.148 69.6556 16.052 70.2236 16.052C71.0316 16.052 71.6916 16.256 72.2036 16.664C72.7236 17.064 73.0116 17.616 73.0676 18.32H71.5556C71.5316 18.016 71.3876 17.756 71.1236 17.54C70.8596 17.324 70.5116 17.216 70.0796 17.216C69.6876 17.216 69.3676 17.316 69.1196 17.516C68.8716 17.716 68.7476 18.004 68.7476 18.38C68.7476 18.636 68.8236 18.848 68.9756 19.016C69.1356 19.176 69.3356 19.304 69.5756 19.4C69.8156 19.496 70.1436 19.6 70.5596 19.712C71.1116 19.864 71.5596 20.016 71.9036 20.168C72.2556 20.32 72.5516 20.556 72.7916 20.876C73.0396 21.188 73.1636 21.608 73.1636 22.136C73.1636 22.56 73.0476 22.96 72.8156 23.336C72.5916 23.712 72.2596 24.016 71.8196 24.248C71.3876 24.472 70.8756 24.584 70.2836 24.584ZM82.563 24.584C82.003 24.584 81.499 24.488 81.051 24.296C80.603 24.096 80.251 23.816 79.995 23.456C79.739 23.096 79.611 22.676 79.611 22.196H81.075C81.107 22.556 81.247 22.852 81.495 23.084C81.751 23.316 82.107 23.432 82.563 23.432C83.035 23.432 83.403 23.32 83.667 23.096C83.931 22.864 84.063 22.568 84.063 22.208C84.063 21.928 83.979 21.7 83.811 21.524C83.651 21.348 83.447 21.212 83.199 21.116C82.959 21.02 82.623 20.916 82.191 20.804C81.647 20.66 81.203 20.516 80.859 20.372C80.523 20.22 80.235 19.988 79.995 19.676C79.755 19.364 79.635 18.948 79.635 18.428C79.635 17.948 79.755 17.528 79.995 17.168C80.235 16.808 80.571 16.532 81.003 16.34C81.435 16.148 81.935 16.052 82.503 16.052C83.311 16.052 83.971 16.256 84.483 16.664C85.003 17.064 85.291 17.616 85.347 18.32H83.835C83.811 18.016 83.667 17.756 83.403 17.54C83.139 17.324 82.791 17.216 82.359 17.216C81.967 17.216 81.647 17.316 81.399 17.516C81.151 17.716 81.027 18.004 81.027 18.38C81.027 18.636 81.103 18.848 81.255 19.016C81.415 19.176 81.615 19.304 81.855 19.4C82.095 19.496 82.423 19.6 82.839 19.712C83.391 19.864 83.839 20.016 84.183 20.168C84.535 20.32 84.831 20.556 85.071 20.876C85.319 21.188 85.443 21.608 85.443 22.136C85.443 22.56 85.327 22.96 85.095 23.336C84.871 23.712 84.539 24.016 84.099 24.248C83.667 24.472 83.155 24.584 82.563 24.584ZM89.3732 16.16V21.476C89.3732 22.108 89.5372 22.584 89.8652 22.904C90.2012 23.224 90.6652 23.384 91.2572 23.384C91.8572 23.384 92.3212 23.224 92.6492 22.904C92.9852 22.584 93.1532 22.108 93.1532 21.476V16.16H94.5212V21.452C94.5212 22.132 94.3732 22.708 94.0772 23.18C93.7812 23.652 93.3852 24.004 92.8892 24.236C92.3932 24.468 91.8452 24.584 91.2452 24.584C90.6452 24.584 90.0972 24.468 89.6012 24.236C89.1132 24.004 88.7252 23.652 88.4372 23.18C88.1492 22.708 88.0052 22.132 88.0052 21.452V16.16H89.3732ZM101.594 24.5L99.6743 21.164H98.6303V24.5H97.2623V16.16H100.142C100.782 16.16 101.322 16.272 101.762 16.496C102.21 16.72 102.542 17.02 102.758 17.396C102.982 17.772 103.094 18.192 103.094 18.656C103.094 19.2 102.934 19.696 102.614 20.144C102.302 20.584 101.818 20.884 101.162 21.044L103.226 24.5H101.594ZM98.6303 20.072H100.142C100.654 20.072 101.038 19.944 101.294 19.688C101.558 19.432 101.69 19.088 101.69 18.656C101.69 18.224 101.562 17.888 101.306 17.648C101.05 17.4 100.662 17.276 100.142 17.276H98.6303V20.072ZM111.84 18.56C111.624 18.144 111.324 17.832 110.94 17.624C110.556 17.408 110.112 17.3 109.608 17.3C109.056 17.3 108.564 17.424 108.132 17.672C107.7 17.92 107.36 18.272 107.112 18.728C106.872 19.184 106.752 19.712 106.752 20.312C106.752 20.912 106.872 21.444 107.112 21.908C107.36 22.364 107.7 22.716 108.132 22.964C108.564 23.212 109.056 23.336 109.608 23.336C110.352 23.336 110.956 23.128 111.42 22.712C111.884 22.296 112.168 21.732 112.272 21.02H109.14V19.928H113.736V20.996C113.648 21.644 113.416 22.24 113.04 22.784C112.672 23.328 112.188 23.764 111.588 24.092C110.996 24.412 110.336 24.572 109.608 24.572C108.824 24.572 108.108 24.392 107.46 24.032C106.812 23.664 106.296 23.156 105.912 22.508C105.536 21.86 105.348 21.128 105.348 20.312C105.348 19.496 105.536 18.764 105.912 18.116C106.296 17.468 106.812 16.964 107.46 16.604C108.116 16.236 108.832 16.052 109.608 16.052C110.496 16.052 111.284 16.272 111.972 16.712C112.668 17.144 113.172 17.76 113.484 18.56H111.84ZM117.414 17.264V19.712H120.294V20.828H117.414V23.384H120.654V24.5H116.046V16.148H120.654V17.264H117.414Z" fill="white"/>
<path fill-rule="evenodd" clip-rule="evenodd" d="M12.8333 40.75C12.8333 40.3358 13.0718 40 13.3661 40H234.3C234.595 40 234.833 40.3358 234.833 40.75C234.833 41.1642 234.595 41.5 234.3 41.5H13.3661C13.0718 41.5 12.8333 41.1642 12.8333 40.75Z" fill="url(#paint0_linear_4001_2134)"/>
<path d="M16.4093 63.584C15.8573 63.584 15.3613 63.488 14.9213 63.296C14.4893 63.096 14.1493 62.824 13.9013 62.48C13.6533 62.128 13.5253 61.724 13.5173 61.268H14.6813C14.7213 61.66 14.8813 61.992 15.1613 62.264C15.4493 62.528 15.8653 62.66 16.4093 62.66C16.9293 62.66 17.3373 62.532 17.6333 62.276C17.9373 62.012 18.0893 61.676 18.0893 61.268C18.0893 60.948 18.0013 60.688 17.8253 60.488C17.6493 60.288 17.4293 60.136 17.1653 60.032C16.9013 59.928 16.5453 59.816 16.0973 59.696C15.5453 59.552 15.1013 59.408 14.7653 59.264C14.4373 59.12 14.1533 58.896 13.9133 58.592C13.6813 58.28 13.5653 57.864 13.5653 57.344C13.5653 56.888 13.6813 56.484 13.9133 56.132C14.1453 55.78 14.4693 55.508 14.8853 55.316C15.3093 55.124 15.7933 55.028 16.3373 55.028C17.1213 55.028 17.7613 55.224 18.2573 55.616C18.7613 56.008 19.0453 56.528 19.1093 57.176H17.9093C17.8693 56.856 17.7013 56.576 17.4053 56.336C17.1093 56.088 16.7173 55.964 16.2293 55.964C15.7733 55.964 15.4013 56.084 15.1133 56.324C14.8253 56.556 14.6813 56.884 14.6813 57.308C14.6813 57.612 14.7653 57.86 14.9333 58.052C15.1093 58.244 15.3213 58.392 15.5693 58.496C15.8253 58.592 16.1813 58.704 16.6373 58.832C17.1893 58.984 17.6333 59.136 17.9693 59.288C18.3053 59.432 18.5933 59.66 18.8333 59.972C19.0733 60.276 19.1933 60.692 19.1933 61.22C19.1933 61.628 19.0853 62.012 18.8693 62.372C18.6533 62.732 18.3333 63.024 17.9093 63.248C17.4853 63.472 16.9853 63.584 16.4093 63.584ZM20.3922 60.188C20.3922 59.516 20.5282 58.928 20.8002 58.424C21.0722 57.912 21.4442 57.516 21.9162 57.236C22.3962 56.956 22.9282 56.816 23.5122 56.816C24.0882 56.816 24.5882 56.94 25.0122 57.188C25.4362 57.436 25.7522 57.748 25.9602 58.124V56.924H27.0642V63.5H25.9602V62.276C25.7442 62.66 25.4202 62.98 24.9882 63.236C24.5642 63.484 24.0682 63.608 23.5002 63.608C22.9162 63.608 22.3882 63.464 21.9162 63.176C21.4442 62.888 21.0722 62.484 20.8002 61.964C20.5282 61.444 20.3922 60.852 20.3922 60.188ZM25.9602 60.2C25.9602 59.704 25.8602 59.272 25.6602 58.904C25.4602 58.536 25.1882 58.256 24.8442 58.064C24.5082 57.864 24.1362 57.764 23.7282 57.764C23.3202 57.764 22.9482 57.86 22.6122 58.052C22.2762 58.244 22.0082 58.524 21.8082 58.892C21.6082 59.26 21.5082 59.692 21.5082 60.188C21.5082 60.692 21.6082 61.132 21.8082 61.508C22.0082 61.876 22.2762 62.16 22.6122 62.36C22.9482 62.552 23.3202 62.648 23.7282 62.648C24.1362 62.648 24.5082 62.552 24.8442 62.36C25.1882 62.16 25.4602 61.876 25.6602 61.508C25.8602 61.132 25.9602 60.696 25.9602 60.2ZM30.0016 54.62V63.5H28.9096V54.62H30.0016ZM37.8627 59.96C37.8627 60.168 37.8507 60.388 37.8267 60.62H32.5707C32.6107 61.268 32.8307 61.776 33.2307 62.144C33.6387 62.504 34.1307 62.684 34.7067 62.684C35.1787 62.684 35.5707 62.576 35.8827 62.36C36.2027 62.136 36.4267 61.84 36.5547 61.472H37.7307C37.5547 62.104 37.2027 62.62 36.6747 63.02C36.1467 63.412 35.4907 63.608 34.7067 63.608C34.0827 63.608 33.5227 63.468 33.0267 63.188C32.5387 62.908 32.1547 62.512 31.8747 62C31.5947 61.48 31.4547 60.88 31.4547 60.2C31.4547 59.52 31.5907 58.924 31.8627 58.412C32.1347 57.9 32.5147 57.508 33.0027 57.236C33.4987 56.956 34.0667 56.816 34.7067 56.816C35.3307 56.816 35.8827 56.952 36.3627 57.224C36.8427 57.496 37.2107 57.872 37.4667 58.352C37.7307 58.824 37.8627 59.36 37.8627 59.96ZM36.7347 59.732C36.7347 59.316 36.6427 58.96 36.4587 58.664C36.2747 58.36 36.0227 58.132 35.7027 57.98C35.3907 57.82 35.0427 57.74 34.6587 57.74C34.1067 57.74 33.6347 57.916 33.2427 58.268C32.8587 58.62 32.6387 59.108 32.5827 59.732H36.7347ZM41.6321 63.608C41.1281 63.608 40.6761 63.524 40.2761 63.356C39.8761 63.18 39.5601 62.94 39.3281 62.636C39.0961 62.324 38.9681 61.968 38.9441 61.568H40.0721C40.1041 61.896 40.2561 62.164 40.5281 62.372C40.8081 62.58 41.1721 62.684 41.6201 62.684C42.0361 62.684 42.3641 62.592 42.6041 62.408C42.8441 62.224 42.9641 61.992 42.9641 61.712C42.9641 61.424 42.8361 61.212 42.5801 61.076C42.3241 60.932 41.9281 60.792 41.3921 60.656C40.9041 60.528 40.5041 60.4 40.1921 60.272C39.8881 60.136 39.6241 59.94 39.4001 59.684C39.1841 59.42 39.0761 59.076 39.0761 58.652C39.0761 58.316 39.1761 58.008 39.3761 57.728C39.5761 57.448 39.8601 57.228 40.2281 57.068C40.5961 56.9 41.0161 56.816 41.4881 56.816C42.2161 56.816 42.8041 57 43.2521 57.368C43.7001 57.736 43.9401 58.24 43.9721 58.88H42.8801C42.8561 58.536 42.7161 58.26 42.4601 58.052C42.2121 57.844 41.8761 57.74 41.4521 57.74C41.0601 57.74 40.7481 57.824 40.5161 57.992C40.2841 58.16 40.1681 58.38 40.1681 58.652C40.1681 58.868 40.2361 59.048 40.3721 59.192C40.5161 59.328 40.6921 59.44 40.9001 59.528C41.1161 59.608 41.4121 59.7 41.7881 59.804C42.2601 59.932 42.6441 60.06 42.9401 60.188C43.2361 60.308 43.4881 60.492 43.6961 60.74C43.9121 60.988 44.0241 61.312 44.0321 61.712C44.0321 62.072 43.9321 62.396 43.7321 62.684C43.5321 62.972 43.2481 63.2 42.8801 63.368C42.5201 63.528 42.1041 63.608 41.6321 63.608ZM49.8649 58.136C50.0809 57.76 50.4009 57.448 50.8249 57.2C51.2569 56.944 51.7569 56.816 52.3249 56.816C52.9089 56.816 53.4369 56.956 53.9089 57.236C54.3889 57.516 54.7649 57.912 55.0369 58.424C55.3089 58.928 55.4449 59.516 55.4449 60.188C55.4449 60.852 55.3089 61.444 55.0369 61.964C54.7649 62.484 54.3889 62.888 53.9089 63.176C53.4369 63.464 52.9089 63.608 52.3249 63.608C51.7649 63.608 51.2689 63.484 50.8369 63.236C50.4129 62.98 50.0889 62.664 49.8649 62.288V66.62H48.7729V56.924H49.8649V58.136ZM54.3289 60.188C54.3289 59.692 54.2289 59.26 54.0289 58.892C53.8289 58.524 53.5569 58.244 53.2129 58.052C52.8769 57.86 52.5049 57.764 52.0969 57.764C51.6969 57.764 51.3249 57.864 50.9809 58.064C50.6449 58.256 50.3729 58.54 50.1649 58.916C49.9649 59.284 49.8649 59.712 49.8649 60.2C49.8649 60.696 49.9649 61.132 50.1649 61.508C50.3729 61.876 50.6449 62.16 50.9809 62.36C51.3249 62.552 51.6969 62.648 52.0969 62.648C52.5049 62.648 52.8769 62.552 53.2129 62.36C53.5569 62.16 53.8289 61.876 54.0289 61.508C54.2289 61.132 54.3289 60.692 54.3289 60.188ZM57.9743 57.992C58.1663 57.616 58.4383 57.324 58.7903 57.116C59.1503 56.908 59.5863 56.804 60.0983 56.804V57.932H59.8103C58.5863 57.932 57.9743 58.596 57.9743 59.924V63.5H56.8823V56.924H57.9743V57.992ZM67.3588 59.96C67.3588 60.168 67.3468 60.388 67.3228 60.62H62.0668C62.1068 61.268 62.3268 61.776 62.7268 62.144C63.1348 62.504 63.6268 62.684 64.2028 62.684C64.6748 62.684 65.0668 62.576 65.3788 62.36C65.6988 62.136 65.9228 61.84 66.0508 61.472H67.2268C67.0508 62.104 66.6988 62.62 66.1708 63.02C65.6428 63.412 64.9868 63.608 64.2028 63.608C63.5788 63.608 63.0188 63.468 62.5228 63.188C62.0348 62.908 61.6508 62.512 61.3708 62C61.0908 61.48 60.9508 60.88 60.9508 60.2C60.9508 59.52 61.0868 58.924 61.3588 58.412C61.6308 57.9 62.0108 57.508 62.4988 57.236C62.9948 56.956 63.5628 56.816 64.2028 56.816C64.8268 56.816 65.3788 56.952 65.8588 57.224C66.3388 57.496 66.7068 57.872 66.9628 58.352C67.2268 58.824 67.3588 59.36 67.3588 59.96ZM66.2308 59.732C66.2308 59.316 66.1388 58.96 65.9548 58.664C65.7708 58.36 65.5188 58.132 65.1988 57.98C64.8868 57.82 64.5388 57.74 64.1548 57.74C63.6028 57.74 63.1308 57.916 62.7388 58.268C62.3548 58.62 62.1348 59.108 62.0788 59.732H66.2308ZM68.3922 60.188C68.3922 59.516 68.5282 58.928 68.8002 58.424C69.0722 57.912 69.4442 57.516 69.9162 57.236C70.3962 56.956 70.9322 56.816 71.5242 56.816C72.0362 56.816 72.5122 56.936 72.9522 57.176C73.3922 57.408 73.7282 57.716 73.9602 58.1V54.62H75.0642V63.5H73.9602V62.264C73.7442 62.656 73.4242 62.98 73.0002 63.236C72.5762 63.484 72.0802 63.608 71.5122 63.608C70.9282 63.608 70.3962 63.464 69.9162 63.176C69.4442 62.888 69.0722 62.484 68.8002 61.964C68.5282 61.444 68.3922 60.852 68.3922 60.188ZM73.9602 60.2C73.9602 59.704 73.8602 59.272 73.6602 58.904C73.4602 58.536 73.1882 58.256 72.8442 58.064C72.5082 57.864 72.1362 57.764 71.7282 57.764C71.3202 57.764 70.9482 57.86 70.6122 58.052C70.2762 58.244 70.0082 58.524 69.8082 58.892C69.6082 59.26 69.5082 59.692 69.5082 60.188C69.5082 60.692 69.6082 61.132 69.8082 61.508C70.0082 61.876 70.2762 62.16 70.6122 62.36C70.9482 62.552 71.3202 62.648 71.7282 62.648C72.1362 62.648 72.5082 62.552 72.8442 62.36C73.1882 62.16 73.4602 61.876 73.6602 61.508C73.8602 61.132 73.9602 60.696 73.9602 60.2ZM77.4736 55.856C77.2656 55.856 77.0896 55.784 76.9456 55.64C76.8016 55.496 76.7296 55.32 76.7296 55.112C76.7296 54.904 76.8016 54.728 76.9456 54.584C77.0896 54.44 77.2656 54.368 77.4736 54.368C77.6736 54.368 77.8416 54.44 77.9776 54.584C78.1216 54.728 78.1936 54.904 78.1936 55.112C78.1936 55.32 78.1216 55.496 77.9776 55.64C77.8416 55.784 77.6736 55.856 77.4736 55.856ZM78.0016 56.924V63.5H76.9096V56.924H78.0016ZM79.4547 60.2C79.4547 59.52 79.5907 58.928 79.8627 58.424C80.1347 57.912 80.5107 57.516 80.9907 57.236C81.4787 56.956 82.0347 56.816 82.6587 56.816C83.4667 56.816 84.1307 57.012 84.6507 57.404C85.1787 57.796 85.5267 58.34 85.6947 59.036H84.5187C84.4067 58.636 84.1867 58.32 83.8587 58.088C83.5387 57.856 83.1387 57.74 82.6587 57.74C82.0347 57.74 81.5307 57.956 81.1467 58.388C80.7627 58.812 80.5707 59.416 80.5707 60.2C80.5707 60.992 80.7627 61.604 81.1467 62.036C81.5307 62.468 82.0347 62.684 82.6587 62.684C83.1387 62.684 83.5387 62.572 83.8587 62.348C84.1787 62.124 84.3987 61.804 84.5187 61.388H85.6947C85.5187 62.06 85.1667 62.6 84.6387 63.008C84.1107 63.408 83.4507 63.608 82.6587 63.608C82.0347 63.608 81.4787 63.468 80.9907 63.188C80.5107 62.908 80.1347 62.512 79.8627 62C79.5907 61.488 79.4547 60.888 79.4547 60.2ZM88.4838 57.824V61.7C88.4838 62.02 88.5518 62.248 88.6878 62.384C88.8238 62.512 89.0598 62.576 89.3958 62.576H90.1998V63.5H89.2158C88.6078 63.5 88.1518 63.36 87.8478 63.08C87.5438 62.8 87.3918 62.34 87.3918 61.7V57.824H86.5398V56.924H87.3918V55.268H88.4838V56.924H90.1998V57.824H88.4838ZM92.0869 55.856C91.8789 55.856 91.7029 55.784 91.5589 55.64C91.4149 55.496 91.3429 55.32 91.3429 55.112C91.3429 54.904 91.4149 54.728 91.5589 54.584C91.7029 54.44 91.8789 54.368 92.0869 54.368C92.2869 54.368 92.4549 54.44 92.5909 54.584C92.7349 54.728 92.8069 54.904 92.8069 55.112C92.8069 55.32 92.7349 55.496 92.5909 55.64C92.4549 55.784 92.2869 55.856 92.0869 55.856ZM92.6149 56.924V63.5H91.5229V56.924H92.6149ZM97.344 63.608C96.728 63.608 96.168 63.468 95.664 63.188C95.168 62.908 94.776 62.512 94.488 62C94.208 61.48 94.068 60.88 94.068 60.2C94.068 59.528 94.212 58.936 94.5 58.424C94.796 57.904 95.196 57.508 95.7 57.236C96.204 56.956 96.768 56.816 97.392 56.816C98.016 56.816 98.58 56.956 99.084 57.236C99.588 57.508 99.984 57.9 100.272 58.412C100.568 58.924 100.716 59.52 100.716 60.2C100.716 60.88 100.564 61.48 100.26 62C99.964 62.512 99.56 62.908 99.048 63.188C98.536 63.468 97.968 63.608 97.344 63.608ZM97.344 62.648C97.736 62.648 98.104 62.556 98.448 62.372C98.792 62.188 99.068 61.912 99.276 61.544C99.492 61.176 99.6 60.728 99.6 60.2C99.6 59.672 99.496 59.224 99.288 58.856C99.08 58.488 98.808 58.216 98.472 58.04C98.136 57.856 97.772 57.764 97.38 57.764C96.98 57.764 96.612 57.856 96.276 58.04C95.948 58.216 95.684 58.488 95.484 58.856C95.284 59.224 95.184 59.672 95.184 60.2C95.184 60.736 95.28 61.188 95.472 61.556C95.672 61.924 95.936 62.2 96.264 62.384C96.592 62.56 96.952 62.648 97.344 62.648ZM105.356 56.804C106.156 56.804 106.804 57.048 107.3 57.536C107.796 58.016 108.044 58.712 108.044 59.624V63.5H106.964V59.78C106.964 59.124 106.8 58.624 106.472 58.28C106.144 57.928 105.696 57.752 105.128 57.752C104.552 57.752 104.092 57.932 103.748 58.292C103.412 58.652 103.244 59.176 103.244 59.864V63.5H102.152V56.924H103.244V57.86C103.46 57.524 103.752 57.264 104.12 57.08C104.496 56.896 104.908 56.804 105.356 56.804ZM112.156 63.608C111.652 63.608 111.2 63.524 110.8 63.356C110.4 63.18 110.084 62.94 109.852 62.636C109.62 62.324 109.492 61.968 109.468 61.568H110.596C110.628 61.896 110.78 62.164 111.052 62.372C111.332 62.58 111.696 62.684 112.144 62.684C112.56 62.684 112.888 62.592 113.128 62.408C113.368 62.224 113.488 61.992 113.488 61.712C113.488 61.424 113.36 61.212 113.104 61.076C112.848 60.932 112.452 60.792 111.916 60.656C111.428 60.528 111.028 60.4 110.716 60.272C110.412 60.136 110.148 59.94 109.924 59.684C109.708 59.42 109.6 59.076 109.6 58.652C109.6 58.316 109.7 58.008 109.9 57.728C110.1 57.448 110.384 57.228 110.752 57.068C111.12 56.9 111.54 56.816 112.012 56.816C112.74 56.816 113.328 57 113.776 57.368C114.224 57.736 114.464 58.24 114.496 58.88H113.404C113.38 58.536 113.24 58.26 112.984 58.052C112.736 57.844 112.4 57.74 111.976 57.74C111.584 57.74 111.272 57.824 111.04 57.992C110.808 58.16 110.692 58.38 110.692 58.652C110.692 58.868 110.76 59.048 110.896 59.192C111.04 59.328 111.216 59.44 111.424 59.528C111.64 59.608 111.936 59.7 112.312 59.804C112.784 59.932 113.168 60.06 113.464 60.188C113.76 60.308 114.012 60.492 114.22 60.74C114.436 60.988 114.548 61.312 114.556 61.712C114.556 62.072 114.456 62.396 114.256 62.684C114.056 62.972 113.772 63.2 113.404 63.368C113.044 63.528 112.628 63.608 112.156 63.608ZM122.56 56.804C123.056 56.804 123.504 56.912 123.904 57.128C124.304 57.336 124.616 57.652 124.84 58.076C125.072 58.5 125.188 59.016 125.188 59.624V63.5H124.108V59.78C124.108 59.124 123.944 58.624 123.616 58.28C123.288 57.928 122.84 57.752 122.272 57.752C121.696 57.752 121.236 57.932 120.892 58.292C120.556 58.652 120.388 59.176 120.388 59.864V63.5H119.296V54.62H120.388V57.86C120.604 57.524 120.9 57.264 121.276 57.08C121.66 56.896 122.088 56.804 122.56 56.804ZM126.564 60.188C126.564 59.516 126.7 58.928 126.972 58.424C127.244 57.912 127.616 57.516 128.088 57.236C128.568 56.956 129.1 56.816 129.684 56.816C130.26 56.816 130.76 56.94 131.184 57.188C131.608 57.436 131.924 57.748 132.132 58.124V56.924H133.236V63.5H132.132V62.276C131.916 62.66 131.592 62.98 131.16 63.236C130.736 63.484 130.24 63.608 129.672 63.608C129.088 63.608 128.56 63.464 128.088 63.176C127.616 62.888 127.244 62.484 126.972 61.964C126.7 61.444 126.564 60.852 126.564 60.188ZM132.132 60.2C132.132 59.704 132.032 59.272 131.832 58.904C131.632 58.536 131.36 58.256 131.016 58.064C130.68 57.864 130.308 57.764 129.9 57.764C129.492 57.764 129.12 57.86 128.784 58.052C128.448 58.244 128.18 58.524 127.98 58.892C127.78 59.26 127.68 59.692 127.68 60.188C127.68 60.692 127.78 61.132 127.98 61.508C128.18 61.876 128.448 62.16 128.784 62.36C129.12 62.552 129.492 62.648 129.9 62.648C130.308 62.648 130.68 62.552 131.016 62.36C131.36 62.16 131.632 61.876 131.832 61.508C132.032 61.132 132.132 60.696 132.132 60.2ZM137.529 62.492L139.569 56.924H140.733L138.153 63.5H136.881L134.301 56.924H135.477L137.529 62.492ZM147.808 59.96C147.808 60.168 147.796 60.388 147.772 60.62H142.516C142.556 61.268 142.776 61.776 143.176 62.144C143.584 62.504 144.076 62.684 144.652 62.684C145.124 62.684 145.516 62.576 145.828 62.36C146.148 62.136 146.372 61.84 146.5 61.472H147.676C147.5 62.104 147.148 62.62 146.62 63.02C146.092 63.412 145.436 63.608 144.652 63.608C144.028 63.608 143.468 63.468 142.972 63.188C142.484 62.908 142.1 62.512 141.82 62C141.54 61.48 141.4 60.88 141.4 60.2C141.4 59.52 141.536 58.924 141.808 58.412C142.08 57.9 142.46 57.508 142.948 57.236C143.444 56.956 144.012 56.816 144.652 56.816C145.276 56.816 145.828 56.952 146.308 57.224C146.788 57.496 147.156 57.872 147.412 58.352C147.676 58.824 147.808 59.36 147.808 59.96ZM146.68 59.732C146.68 59.316 146.588 58.96 146.404 58.664C146.22 58.36 145.968 58.132 145.648 57.98C145.336 57.82 144.988 57.74 144.604 57.74C144.052 57.74 143.58 57.916 143.188 58.268C142.804 58.62 142.584 59.108 142.528 59.732H146.68ZM154.777 63.608C154.273 63.608 153.821 63.524 153.421 63.356C153.021 63.18 152.705 62.94 152.473 62.636C152.241 62.324 152.113 61.968 152.089 61.568H153.217C153.249 61.896 153.401 62.164 153.673 62.372C153.953 62.58 154.317 62.684 154.765 62.684C155.181 62.684 155.509 62.592 155.749 62.408C155.989 62.224 156.109 61.992 156.109 61.712C156.109 61.424 155.981 61.212 155.725 61.076C155.469 60.932 155.073 60.792 154.537 60.656C154.049 60.528 153.649 60.4 153.337 60.272C153.033 60.136 152.769 59.94 152.545 59.684C152.329 59.42 152.221 59.076 152.221 58.652C152.221 58.316 152.321 58.008 152.521 57.728C152.721 57.448 153.005 57.228 153.373 57.068C153.741 56.9 154.161 56.816 154.633 56.816C155.361 56.816 155.949 57 156.397 57.368C156.845 57.736 157.085 58.24 157.117 58.88H156.025C156.001 58.536 155.861 58.26 155.605 58.052C155.357 57.844 155.021 57.74 154.597 57.74C154.205 57.74 153.893 57.824 153.661 57.992C153.429 58.16 153.313 58.38 153.313 58.652C153.313 58.868 153.381 59.048 153.517 59.192C153.661 59.328 153.837 59.44 154.045 59.528C154.261 59.608 154.557 59.7 154.933 59.804C155.405 59.932 155.789 60.06 156.085 60.188C156.381 60.308 156.633 60.492 156.841 60.74C157.057 60.988 157.169 61.312 157.177 61.712C157.177 62.072 157.077 62.396 156.877 62.684C156.677 62.972 156.393 63.2 156.025 63.368C155.665 63.528 155.249 63.608 154.777 63.608ZM161.982 56.804C162.478 56.804 162.926 56.912 163.326 57.128C163.726 57.336 164.038 57.652 164.262 58.076C164.494 58.5 164.61 59.016 164.61 59.624V63.5H163.53V59.78C163.53 59.124 163.366 58.624 163.038 58.28C162.71 57.928 162.262 57.752 161.694 57.752C161.118 57.752 160.658 57.932 160.314 58.292C159.978 58.652 159.81 59.176 159.81 59.864V63.5H158.718V54.62H159.81V57.86C160.026 57.524 160.322 57.264 160.698 57.08C161.082 56.896 161.51 56.804 161.982 56.804ZM166.958 55.856C166.75 55.856 166.574 55.784 166.43 55.64C166.286 55.496 166.214 55.32 166.214 55.112C166.214 54.904 166.286 54.728 166.43 54.584C166.574 54.44 166.75 54.368 166.958 54.368C167.158 54.368 167.326 54.44 167.462 54.584C167.606 54.728 167.678 54.904 167.678 55.112C167.678 55.32 167.606 55.496 167.462 55.64C167.326 55.784 167.158 55.856 166.958 55.856ZM167.486 56.924V63.5H166.394V56.924H167.486ZM172.023 57.824H170.643V63.5H169.551V57.824H168.699V56.924H169.551V56.456C169.551 55.72 169.739 55.184 170.115 54.848C170.499 54.504 171.111 54.332 171.951 54.332V55.244C171.471 55.244 171.131 55.34 170.931 55.532C170.739 55.716 170.643 56.024 170.643 56.456V56.924H172.023V57.824ZM174.628 57.824V61.7C174.628 62.02 174.696 62.248 174.832 62.384C174.968 62.512 175.204 62.576 175.54 62.576H176.344V63.5H175.36C174.752 63.5 174.296 63.36 173.992 63.08C173.688 62.8 173.536 62.34 173.536 61.7V57.824H172.684V56.924H173.536V55.268H174.628V56.924H176.344V57.824H174.628ZM183.667 59.96C183.667 60.168 183.655 60.388 183.631 60.62H178.375C178.415 61.268 178.635 61.776 179.035 62.144C179.443 62.504 179.935 62.684 180.511 62.684C180.983 62.684 181.375 62.576 181.687 62.36C182.007 62.136 182.231 61.84 182.359 61.472H183.535C183.359 62.104 183.007 62.62 182.479 63.02C181.951 63.412 181.295 63.608 180.511 63.608C179.887 63.608 179.327 63.468 178.831 63.188C178.343 62.908 177.959 62.512 177.679 62C177.399 61.48 177.259 60.88 177.259 60.2C177.259 59.52 177.395 58.924 177.667 58.412C177.939 57.9 178.319 57.508 178.807 57.236C179.303 56.956 179.871 56.816 180.511 56.816C181.135 56.816 181.687 56.952 182.167 57.224C182.647 57.496 183.015 57.872 183.271 58.352C183.535 58.824 183.667 59.36 183.667 59.96ZM182.539 59.732C182.539 59.316 182.447 58.96 182.263 58.664C182.079 58.36 181.827 58.132 181.507 57.98C181.195 57.82 180.847 57.74 180.463 57.74C179.911 57.74 179.439 57.916 179.047 58.268C178.663 58.62 178.443 59.108 178.387 59.732H182.539ZM184.701 60.188C184.701 59.516 184.837 58.928 185.109 58.424C185.381 57.912 185.753 57.516 186.225 57.236C186.705 56.956 187.241 56.816 187.833 56.816C188.345 56.816 188.821 56.936 189.261 57.176C189.701 57.408 190.037 57.716 190.269 58.1V54.62H191.373V63.5H190.269V62.264C190.053 62.656 189.733 62.98 189.309 63.236C188.885 63.484 188.389 63.608 187.821 63.608C187.237 63.608 186.705 63.464 186.225 63.176C185.753 62.888 185.381 62.484 185.109 61.964C184.837 61.444 184.701 60.852 184.701 60.188ZM190.269 60.2C190.269 59.704 190.169 59.272 189.969 58.904C189.769 58.536 189.497 58.256 189.153 58.064C188.817 57.864 188.445 57.764 188.037 57.764C187.629 57.764 187.257 57.86 186.921 58.052C186.585 58.244 186.317 58.524 186.117 58.892C185.917 59.26 185.817 59.692 185.817 60.188C185.817 60.692 185.917 61.132 186.117 61.508C186.317 61.876 186.585 62.16 186.921 62.36C187.257 62.552 187.629 62.648 188.037 62.648C188.445 62.648 188.817 62.552 189.153 62.36C189.497 62.16 189.769 61.876 189.969 61.508C190.169 61.132 190.269 60.696 190.269 60.2ZM202.249 56.924V63.5H201.157V62.528C200.949 62.864 200.657 63.128 200.281 63.32C199.913 63.504 199.505 63.596 199.057 63.596C198.545 63.596 198.085 63.492 197.677 63.284C197.269 63.068 196.945 62.748 196.705 62.324C196.473 61.9 196.357 61.384 196.357 60.776V56.924H197.437V60.632C197.437 61.28 197.601 61.78 197.929 62.132C198.257 62.476 198.705 62.648 199.273 62.648C199.857 62.648 200.317 62.468 200.653 62.108C200.989 61.748 201.157 61.224 201.157 60.536V56.924H202.249ZM205.185 58.136C205.401 57.76 205.721 57.448 206.145 57.2C206.577 56.944 207.077 56.816 207.645 56.816C208.229 56.816 208.757 56.956 209.229 57.236C209.709 57.516 210.085 57.912 210.357 58.424C210.629 58.928 210.765 59.516 210.765 60.188C210.765 60.852 210.629 61.444 210.357 61.964C210.085 62.484 209.709 62.888 209.229 63.176C208.757 63.464 208.229 63.608 207.645 63.608C207.085 63.608 206.589 63.484 206.157 63.236C205.733 62.98 205.409 62.664 205.185 62.288V66.62H204.093V56.924H205.185V58.136ZM209.649 60.188C209.649 59.692 209.549 59.26 209.349 58.892C209.149 58.524 208.877 58.244 208.533 58.052C208.197 57.86 207.825 57.764 207.417 57.764C207.017 57.764 206.645 57.864 206.301 58.064C205.965 58.256 205.693 58.54 205.485 58.916C205.285 59.284 205.185 59.712 205.185 60.2C205.185 60.696 205.285 61.132 205.485 61.508C205.693 61.876 205.965 62.16 206.301 62.36C206.645 62.552 207.017 62.648 207.417 62.648C207.825 62.648 208.197 62.552 208.533 62.36C208.877 62.16 209.149 61.876 209.349 61.508C209.549 61.132 209.649 60.692 209.649 60.188ZM216.494 58.148C216.718 57.756 217.046 57.436 217.478 57.188C217.91 56.94 218.402 56.816 218.954 56.816C219.546 56.816 220.078 56.956 220.55 57.236C221.022 57.516 221.394 57.912 221.666 58.424C221.938 58.928 222.074 59.516 222.074 60.188C222.074 60.852 221.938 61.444 221.666 61.964C221.394 62.484 221.018 62.888 220.538 63.176C220.066 63.464 219.538 63.608 218.954 63.608C218.386 63.608 217.886 63.484 217.454 63.236C217.03 62.988 216.71 62.672 216.494 62.288V63.5H215.402V54.62H216.494V58.148ZM220.958 60.188C220.958 59.692 220.858 59.26 220.658 58.892C220.458 58.524 220.186 58.244 219.842 58.052C219.506 57.86 219.134 57.764 218.726 57.764C218.326 57.764 217.954 57.864 217.61 58.064C217.274 58.256 217.002 58.54 216.794 58.916C216.594 59.284 216.494 59.712 216.494 60.2C216.494 60.696 216.594 61.132 216.794 61.508C217.002 61.876 217.274 62.16 217.61 62.36C217.954 62.552 218.326 62.648 218.726 62.648C219.134 62.648 219.506 62.552 219.842 62.36C220.186 62.16 220.458 61.876 220.658 61.508C220.858 61.132 220.958 60.692 220.958 60.188ZM229.175 56.924L225.215 66.596H224.087L225.383 63.428L222.731 56.924H223.943L226.007 62.252L228.047 56.924H229.175ZM18.9173 74.676L15.5813 82.5H14.4773L17.8613 74.784H13.2293V73.848H18.9173V74.676ZM19.888 75.78C19.888 75.236 20.052 74.804 20.38 74.484C20.708 74.156 21.128 73.992 21.64 73.992C22.152 73.992 22.572 74.156 22.9 74.484C23.228 74.804 23.392 75.236 23.392 75.78C23.392 76.332 23.228 76.772 22.9 77.1C22.572 77.42 22.152 77.58 21.64 77.58C21.128 77.58 20.708 77.42 20.38 77.1C20.052 76.772 19.888 76.332 19.888 75.78ZM26.896 74.124L22.036 82.5H20.956L25.816 74.124H26.896ZM21.64 74.664C21.368 74.664 21.152 74.76 20.992 74.952C20.84 75.136 20.764 75.412 20.764 75.78C20.764 76.148 20.84 76.428 20.992 76.62C21.152 76.812 21.368 76.908 21.64 76.908C21.912 76.908 22.128 76.812 22.288 76.62C22.448 76.42 22.528 76.14 22.528 75.78C22.528 75.412 22.448 75.136 22.288 74.952C22.128 74.76 21.912 74.664 21.64 74.664ZM24.484 80.844C24.484 80.292 24.648 79.856 24.976 79.536C25.304 79.208 25.724 79.044 26.236 79.044C26.748 79.044 27.164 79.208 27.484 79.536C27.812 79.856 27.976 80.292 27.976 80.844C27.976 81.388 27.812 81.824 27.484 82.152C27.164 82.48 26.748 82.644 26.236 82.644C25.724 82.644 25.304 82.484 24.976 82.164C24.648 81.836 24.484 81.396 24.484 80.844ZM26.224 79.728C25.952 79.728 25.736 79.824 25.576 80.016C25.416 80.2 25.336 80.476 25.336 80.844C25.336 81.204 25.416 81.48 25.576 81.672C25.736 81.856 25.952 81.948 26.224 81.948C26.496 81.948 26.712 81.856 26.872 81.672C27.032 81.48 27.112 81.204 27.112 80.844C27.112 80.476 27.032 80.2 26.872 80.016C26.712 79.824 26.496 79.728 26.224 79.728ZM33.9447 76.824V80.7C33.9447 81.02 34.0127 81.248 34.1487 81.384C34.2847 81.512 34.5207 81.576 34.8567 81.576H35.6607V82.5H34.6767C34.0687 82.5 33.6127 82.36 33.3087 82.08C33.0047 81.8 32.8527 81.34 32.8527 80.7V76.824H32.0007V75.924H32.8527V74.268H33.9447V75.924H35.6607V76.824H33.9447ZM40.2478 75.804C40.7438 75.804 41.1918 75.912 41.5918 76.128C41.9918 76.336 42.3038 76.652 42.5278 77.076C42.7598 77.5 42.8758 78.016 42.8758 78.624V82.5H41.7958V78.78C41.7958 78.124 41.6318 77.624 41.3038 77.28C40.9758 76.928 40.5278 76.752 39.9598 76.752C39.3838 76.752 38.9238 76.932 38.5798 77.292C38.2438 77.652 38.0758 78.176 38.0758 78.864V82.5H36.9838V73.62H38.0758V76.86C38.2918 76.524 38.5878 76.264 38.9638 76.08C39.3478 75.896 39.7758 75.804 40.2478 75.804ZM45.2236 74.856C45.0156 74.856 44.8396 74.784 44.6956 74.64C44.5516 74.496 44.4796 74.32 44.4796 74.112C44.4796 73.904 44.5516 73.728 44.6956 73.584C44.8396 73.44 45.0156 73.368 45.2236 73.368C45.4236 73.368 45.5916 73.44 45.7276 73.584C45.8716 73.728 45.9436 73.904 45.9436 74.112C45.9436 74.32 45.8716 74.496 45.7276 74.64C45.5916 74.784 45.4236 74.856 45.2236 74.856ZM45.7516 75.924V82.5H44.6596V75.924H45.7516ZM49.9407 82.608C49.4367 82.608 48.9847 82.524 48.5847 82.356C48.1847 82.18 47.8687 81.94 47.6367 81.636C47.4047 81.324 47.2767 80.968 47.2527 80.568H48.3807C48.4127 80.896 48.5647 81.164 48.8367 81.372C49.1167 81.58 49.4807 81.684 49.9287 81.684C50.3447 81.684 50.6727 81.592 50.9127 81.408C51.1527 81.224 51.2727 80.992 51.2727 80.712C51.2727 80.424 51.1447 80.212 50.8887 80.076C50.6327 79.932 50.2367 79.792 49.7007 79.656C49.2127 79.528 48.8127 79.4 48.5007 79.272C48.1967 79.136 47.9327 78.94 47.7087 78.684C47.4927 78.42 47.3847 78.076 47.3847 77.652C47.3847 77.316 47.4847 77.008 47.6847 76.728C47.8847 76.448 48.1687 76.228 48.5367 76.068C48.9047 75.9 49.3247 75.816 49.7967 75.816C50.5247 75.816 51.1127 76 51.5607 76.368C52.0087 76.736 52.2487 77.24 52.2807 77.88H51.1887C51.1647 77.536 51.0247 77.26 50.7687 77.052C50.5207 76.844 50.1847 76.74 49.7607 76.74C49.3687 76.74 49.0567 76.824 48.8247 76.992C48.5927 77.16 48.4767 77.38 48.4767 77.652C48.4767 77.868 48.5447 78.048 48.6807 78.192C48.8247 78.328 49.0007 78.44 49.2087 78.528C49.4247 78.608 49.7207 78.7 50.0967 78.804C50.5687 78.932 50.9527 79.06 51.2487 79.188C51.5447 79.308 51.7967 79.492 52.0047 79.74C52.2207 79.988 52.3327 80.312 52.3407 80.712C52.3407 81.072 52.2407 81.396 52.0407 81.684C51.8407 81.972 51.5567 82.2 51.1887 82.368C50.8287 82.528 50.4127 82.608 49.9407 82.608ZM64.9895 75.804C65.5015 75.804 65.9575 75.912 66.3575 76.128C66.7575 76.336 67.0735 76.652 67.3055 77.076C67.5375 77.5 67.6535 78.016 67.6535 78.624V82.5H66.5735V78.78C66.5735 78.124 66.4095 77.624 66.0815 77.28C65.7615 76.928 65.3255 76.752 64.7735 76.752C64.2055 76.752 63.7535 76.936 63.4175 77.304C63.0815 77.664 62.9135 78.188 62.9135 78.876V82.5H61.8335V78.78C61.8335 78.124 61.6695 77.624 61.3415 77.28C61.0215 76.928 60.5855 76.752 60.0335 76.752C59.4655 76.752 59.0135 76.936 58.6775 77.304C58.3415 77.664 58.1735 78.188 58.1735 78.876V82.5H57.0815V75.924H58.1735V76.872C58.3895 76.528 58.6775 76.264 59.0375 76.08C59.4055 75.896 59.8095 75.804 60.2495 75.804C60.8015 75.804 61.2895 75.928 61.7135 76.176C62.1375 76.424 62.4535 76.788 62.6615 77.268C62.8455 76.804 63.1495 76.444 63.5735 76.188C63.9975 75.932 64.4695 75.804 64.9895 75.804ZM72.3128 82.608C71.6968 82.608 71.1368 82.468 70.6328 82.188C70.1368 81.908 69.7448 81.512 69.4568 81C69.1768 80.48 69.0368 79.88 69.0368 79.2C69.0368 78.528 69.1808 77.936 69.4688 77.424C69.7648 76.904 70.1648 76.508 70.6688 76.236C71.1728 75.956 71.7368 75.816 72.3608 75.816C72.9848 75.816 73.5488 75.956 74.0528 76.236C74.5568 76.508 74.9528 76.9 75.2408 77.412C75.5368 77.924 75.6848 78.52 75.6848 79.2C75.6848 79.88 75.5328 80.48 75.2288 81C74.9328 81.512 74.5288 81.908 74.0168 82.188C73.5048 82.468 72.9368 82.608 72.3128 82.608ZM72.3128 81.648C72.7048 81.648 73.0728 81.556 73.4168 81.372C73.7608 81.188 74.0368 80.912 74.2448 80.544C74.4608 80.176 74.5688 79.728 74.5688 79.2C74.5688 78.672 74.4648 78.224 74.2568 77.856C74.0488 77.488 73.7768 77.216 73.4408 77.04C73.1048 76.856 72.7408 76.764 72.3488 76.764C71.9488 76.764 71.5808 76.856 71.2448 77.04C70.9168 77.216 70.6528 77.488 70.4528 77.856C70.2528 78.224 70.1528 78.672 70.1528 79.2C70.1528 79.736 70.2488 80.188 70.4408 80.556C70.6408 80.924 70.9048 81.2 71.2328 81.384C71.5608 81.56 71.9208 81.648 72.3128 81.648ZM80.3245 75.804C81.1245 75.804 81.7725 76.048 82.2685 76.536C82.7645 77.016 83.0125 77.712 83.0125 78.624V82.5H81.9325V78.78C81.9325 78.124 81.7685 77.624 81.4405 77.28C81.1125 76.928 80.6645 76.752 80.0965 76.752C79.5205 76.752 79.0605 76.932 78.7165 77.292C78.3805 77.652 78.2125 78.176 78.2125 78.864V82.5H77.1205V75.924H78.2125V76.86C78.4285 76.524 78.7205 76.264 79.0885 76.08C79.4645 75.896 79.8765 75.804 80.3245 75.804ZM86.1283 76.824V80.7C86.1283 81.02 86.1963 81.248 86.3323 81.384C86.4683 81.512 86.7043 81.576 87.0403 81.576H87.8443V82.5H86.8603C86.2523 82.5 85.7963 82.36 85.4923 82.08C85.1883 81.8 85.0363 81.34 85.0363 80.7V76.824H84.1843V75.924H85.0363V74.268H86.1283V75.924H87.8443V76.824H86.1283ZM92.4314 75.804C92.9274 75.804 93.3754 75.912 93.7754 76.128C94.1754 76.336 94.4874 76.652 94.7114 77.076C94.9434 77.5 95.0594 78.016 95.0594 78.624V82.5H93.9794V78.78C93.9794 78.124 93.8154 77.624 93.4874 77.28C93.1594 76.928 92.7114 76.752 92.1434 76.752C91.5674 76.752 91.1074 76.932 90.7634 77.292C90.4274 77.652 90.2594 78.176 90.2594 78.864V82.5H89.1674V73.62H90.2594V76.86C90.4754 76.524 90.7714 76.264 91.1474 76.08C91.5314 75.896 91.9594 75.804 92.4314 75.804ZM97.9712 80.988L96.6272 84.216H95.8952L96.7712 80.988H97.9712ZM103.753 76.824V80.7C103.753 81.02 103.821 81.248 103.957 81.384C104.093 81.512 104.329 81.576 104.665 81.576H105.469V82.5H104.485C103.877 82.5 103.421 82.36 103.117 82.08C102.813 81.8 102.661 81.34 102.661 80.7V76.824H101.809V75.924H102.661V74.268H103.753V75.924H105.469V76.824H103.753ZM107.356 74.856C107.148 74.856 106.972 74.784 106.828 74.64C106.684 74.496 106.612 74.32 106.612 74.112C106.612 73.904 106.684 73.728 106.828 73.584C106.972 73.44 107.148 73.368 107.356 73.368C107.556 73.368 107.724 73.44 107.86 73.584C108.004 73.728 108.076 73.904 108.076 74.112C108.076 74.32 108.004 74.496 107.86 74.64C107.724 74.784 107.556 74.856 107.356 74.856ZM107.884 75.924V82.5H106.792V75.924H107.884ZM117.654 75.804C118.166 75.804 118.622 75.912 119.022 76.128C119.422 76.336 119.738 76.652 119.97 77.076C120.202 77.5 120.318 78.016 120.318 78.624V82.5H119.238V78.78C119.238 78.124 119.074 77.624 118.746 77.28C118.426 76.928 117.99 76.752 117.438 76.752C116.87 76.752 116.418 76.936 116.082 77.304C115.746 77.664 115.578 78.188 115.578 78.876V82.5H114.498V78.78C114.498 78.124 114.334 77.624 114.006 77.28C113.686 76.928 113.25 76.752 112.698 76.752C112.13 76.752 111.678 76.936 111.342 77.304C111.006 77.664 110.838 78.188 110.838 78.876V82.5H109.746V75.924H110.838V76.872C111.054 76.528 111.342 76.264 111.702 76.08C112.07 75.896 112.474 75.804 112.914 75.804C113.466 75.804 113.954 75.928 114.378 76.176C114.802 76.424 115.118 76.788 115.326 77.268C115.51 76.804 115.814 76.444 116.238 76.188C116.662 75.932 117.134 75.804 117.654 75.804ZM128.109 78.96C128.109 79.168 128.097 79.388 128.073 79.62H122.817C122.857 80.268 123.077 80.776 123.477 81.144C123.885 81.504 124.377 81.684 124.953 81.684C125.425 81.684 125.817 81.576 126.129 81.36C126.449 81.136 126.673 80.84 126.801 80.472H127.977C127.801 81.104 127.449 81.62 126.921 82.02C126.393 82.412 125.737 82.608 124.953 82.608C124.329 82.608 123.769 82.468 123.273 82.188C122.785 81.908 122.401 81.512 122.121 81C121.841 80.48 121.701 79.88 121.701 79.2C121.701 78.52 121.837 77.924 122.109 77.412C122.381 76.9 122.761 76.508 123.249 76.236C123.745 75.956 124.313 75.816 124.953 75.816C125.577 75.816 126.129 75.952 126.609 76.224C127.089 76.496 127.457 76.872 127.713 77.352C127.977 77.824 128.109 78.36 128.109 78.96ZM126.981 78.732C126.981 78.316 126.889 77.96 126.705 77.664C126.521 77.36 126.269 77.132 125.949 76.98C125.637 76.82 125.289 76.74 124.905 76.74C124.353 76.74 123.881 76.916 123.489 77.268C123.105 77.62 122.885 78.108 122.829 78.732H126.981ZM134.081 76.824V80.7C134.081 81.02 134.149 81.248 134.285 81.384C134.421 81.512 134.657 81.576 134.993 81.576H135.797V82.5H134.813C134.205 82.5 133.749 82.36 133.445 82.08C133.141 81.8 132.989 81.34 132.989 80.7V76.824H132.137V75.924H132.989V74.268H134.081V75.924H135.797V76.824H134.081ZM139.989 82.608C139.373 82.608 138.813 82.468 138.309 82.188C137.813 81.908 137.421 81.512 137.133 81C136.853 80.48 136.713 79.88 136.713 79.2C136.713 78.528 136.857 77.936 137.145 77.424C137.441 76.904 137.841 76.508 138.345 76.236C138.849 75.956 139.413 75.816 140.037 75.816C140.661 75.816 141.225 75.956 141.729 76.236C142.233 76.508 142.629 76.9 142.917 77.412C143.213 77.924 143.361 78.52 143.361 79.2C143.361 79.88 143.209 80.48 142.905 81C142.609 81.512 142.205 81.908 141.693 82.188C141.181 82.468 140.613 82.608 139.989 82.608ZM139.989 81.648C140.381 81.648 140.749 81.556 141.093 81.372C141.437 81.188 141.713 80.912 141.921 80.544C142.137 80.176 142.245 79.728 142.245 79.2C142.245 78.672 142.141 78.224 141.933 77.856C141.725 77.488 141.453 77.216 141.117 77.04C140.781 76.856 140.417 76.764 140.025 76.764C139.625 76.764 139.257 76.856 138.921 77.04C138.593 77.216 138.329 77.488 138.129 77.856C137.929 78.224 137.829 78.672 137.829 79.2C137.829 79.736 137.925 80.188 138.117 80.556C138.317 80.924 138.581 81.2 138.909 81.384C139.237 81.56 139.597 81.648 139.989 81.648ZM149.088 76.992C149.28 76.616 149.552 76.324 149.904 76.116C150.264 75.908 150.7 75.804 151.212 75.804V76.932H150.924C149.7 76.932 149.088 77.596 149.088 78.924V82.5H147.996V75.924H149.088V76.992ZM158.472 78.96C158.472 79.168 158.46 79.388 158.436 79.62H153.18C153.22 80.268 153.44 80.776 153.84 81.144C154.248 81.504 154.74 81.684 155.316 81.684C155.788 81.684 156.18 81.576 156.492 81.36C156.812 81.136 157.036 80.84 157.164 80.472H158.34C158.164 81.104 157.812 81.62 157.284 82.02C156.756 82.412 156.1 82.608 155.316 82.608C154.692 82.608 154.132 82.468 153.636 82.188C153.148 81.908 152.764 81.512 152.484 81C152.204 80.48 152.064 79.88 152.064 79.2C152.064 78.52 152.2 77.924 152.472 77.412C152.744 76.9 153.124 76.508 153.612 76.236C154.108 75.956 154.676 75.816 155.316 75.816C155.94 75.816 156.492 75.952 156.972 76.224C157.452 76.496 157.82 76.872 158.076 77.352C158.34 77.824 158.472 78.36 158.472 78.96ZM157.344 78.732C157.344 78.316 157.252 77.96 157.068 77.664C156.884 77.36 156.632 77.132 156.312 76.98C156 76.82 155.652 76.74 155.268 76.74C154.716 76.74 154.244 76.916 153.852 77.268C153.468 77.62 153.248 78.108 153.192 78.732H157.344ZM164.474 77.64V78.564H159.686V77.64H164.474ZM172.523 78.96C172.523 79.168 172.511 79.388 172.487 79.62H167.231C167.271 80.268 167.491 80.776 167.891 81.144C168.299 81.504 168.791 81.684 169.367 81.684C169.839 81.684 170.231 81.576 170.543 81.36C170.863 81.136 171.087 80.84 171.215 80.472H172.391C172.215 81.104 171.863 81.62 171.335 82.02C170.807 82.412 170.151 82.608 169.367 82.608C168.743 82.608 168.183 82.468 167.687 82.188C167.199 81.908 166.815 81.512 166.535 81C166.255 80.48 166.115 79.88 166.115 79.2C166.115 78.52 166.251 77.924 166.523 77.412C166.795 76.9 167.175 76.508 167.663 76.236C168.159 75.956 168.727 75.816 169.367 75.816C169.991 75.816 170.543 75.952 171.023 76.224C171.503 76.496 171.871 76.872 172.127 77.352C172.391 77.824 172.523 78.36 172.523 78.96ZM171.395 78.732C171.395 78.316 171.303 77.96 171.119 77.664C170.935 77.36 170.683 77.132 170.363 76.98C170.051 76.82 169.703 76.74 169.319 76.74C168.767 76.74 168.295 76.916 167.903 77.268C167.519 77.62 167.299 78.108 167.243 78.732H171.395ZM176.412 81.492L178.452 75.924H179.616L177.036 82.5H175.764L173.184 75.924H174.36L176.412 81.492ZM180.283 79.188C180.283 78.516 180.419 77.928 180.691 77.424C180.963 76.912 181.335 76.516 181.807 76.236C182.287 75.956 182.819 75.816 183.403 75.816C183.979 75.816 184.479 75.94 184.903 76.188C185.327 76.436 185.643 76.748 185.851 77.124V75.924H186.955V82.5H185.851V81.276C185.635 81.66 185.311 81.98 184.879 82.236C184.455 82.484 183.959 82.608 183.391 82.608C182.807 82.608 182.279 82.464 181.807 82.176C181.335 81.888 180.963 81.484 180.691 80.964C180.419 80.444 180.283 79.852 180.283 79.188ZM185.851 79.2C185.851 78.704 185.751 78.272 185.551 77.904C185.351 77.536 185.079 77.256 184.735 77.064C184.399 76.864 184.027 76.764 183.619 76.764C183.211 76.764 182.839 76.86 182.503 77.052C182.167 77.244 181.899 77.524 181.699 77.892C181.499 78.26 181.399 78.692 181.399 79.188C181.399 79.692 181.499 80.132 181.699 80.508C181.899 80.876 182.167 81.16 182.503 81.36C182.839 81.552 183.211 81.648 183.619 81.648C184.027 81.648 184.399 81.552 184.735 81.36C185.079 81.16 185.351 80.876 185.551 80.508C185.751 80.132 185.851 79.696 185.851 79.2ZM189.892 73.62V82.5H188.8V73.62H189.892ZM197.585 75.924V82.5H196.493V81.528C196.285 81.864 195.993 82.128 195.617 82.32C195.249 82.504 194.841 82.596 194.393 82.596C193.881 82.596 193.421 82.492 193.013 82.284C192.605 82.068 192.281 81.748 192.041 81.324C191.809 80.9 191.693 80.384 191.693 79.776V75.924H192.773V79.632C192.773 80.28 192.937 80.78 193.265 81.132C193.593 81.476 194.041 81.648 194.609 81.648C195.193 81.648 195.653 81.468 195.989 81.108C196.325 80.748 196.493 80.224 196.493 79.536V75.924H197.585ZM199.021 79.188C199.021 78.516 199.157 77.928 199.429 77.424C199.701 76.912 200.073 76.516 200.545 76.236C201.025 75.956 201.557 75.816 202.141 75.816C202.717 75.816 203.217 75.94 203.641 76.188C204.065 76.436 204.381 76.748 204.589 77.124V75.924H205.693V82.5H204.589V81.276C204.373 81.66 204.049 81.98 203.617 82.236C203.193 82.484 202.697 82.608 202.129 82.608C201.545 82.608 201.017 82.464 200.545 82.176C200.073 81.888 199.701 81.484 199.429 80.964C199.157 80.444 199.021 79.852 199.021 79.188ZM204.589 79.2C204.589 78.704 204.489 78.272 204.289 77.904C204.089 77.536 203.817 77.256 203.473 77.064C203.137 76.864 202.765 76.764 202.357 76.764C201.949 76.764 201.577 76.86 201.241 77.052C200.905 77.244 200.637 77.524 200.437 77.892C200.237 78.26 200.137 78.692 200.137 79.188C200.137 79.692 200.237 80.132 200.437 80.508C200.637 80.876 200.905 81.16 201.241 81.36C201.577 81.552 201.949 81.648 202.357 81.648C202.765 81.648 203.137 81.552 203.473 81.36C203.817 81.16 204.089 80.876 204.289 80.508C204.489 80.132 204.589 79.696 204.589 79.2ZM208.871 76.824V80.7C208.871 81.02 208.939 81.248 209.075 81.384C209.211 81.512 209.447 81.576 209.783 81.576H210.587V82.5H209.603C208.995 82.5 208.539 82.36 208.235 82.08C207.931 81.8 207.779 81.34 207.779 80.7V76.824H206.927V75.924H207.779V74.268H208.871V75.924H210.587V76.824H208.871ZM217.91 78.96C217.91 79.168 217.898 79.388 217.874 79.62H212.618C212.658 80.268 212.878 80.776 213.278 81.144C213.686 81.504 214.178 81.684 214.754 81.684C215.226 81.684 215.618 81.576 215.93 81.36C216.25 81.136 216.474 80.84 216.602 80.472H217.778C217.602 81.104 217.25 81.62 216.722 82.02C216.194 82.412 215.538 82.608 214.754 82.608C214.13 82.608 213.57 82.468 213.074 82.188C212.586 81.908 212.202 81.512 211.922 81C211.642 80.48 211.502 79.88 211.502 79.2C211.502 78.52 211.638 77.924 211.91 77.412C212.182 76.9 212.562 76.508 213.05 76.236C213.546 75.956 214.114 75.816 214.754 75.816C215.378 75.816 215.93 75.952 216.41 76.224C216.89 76.496 217.258 76.872 217.514 77.352C217.778 77.824 217.91 78.36 217.91 78.96ZM216.782 78.732C216.782 78.316 216.69 77.96 216.506 77.664C216.322 77.36 216.07 77.132 215.75 76.98C215.438 76.82 215.09 76.74 214.706 76.74C214.154 76.74 213.682 76.916 213.29 77.268C212.906 77.62 212.686 78.108 212.63 78.732H216.782ZM219.699 82.572C219.491 82.572 219.315 82.5 219.171 82.356C219.027 82.212 218.955 82.036 218.955 81.828C218.955 81.62 219.027 81.444 219.171 81.3C219.315 81.156 219.491 81.084 219.699 81.084C219.899 81.084 220.067 81.156 220.203 81.3C220.347 81.444 220.419 81.62 220.419 81.828C220.419 82.036 220.347 82.212 220.203 82.356C220.067 82.5 219.899 82.572 219.699 82.572Z" fill="#F2F2F3"/>
</g>
<defs>
<filter id="filter0_b_4001_2134" x="-37.9567" y="-38.79" width="327.278" height="177.08" filterUnits="userSpaceOnUse" color-interpolation-filters="sRGB">
<feFlood flood-opacity="0" result="BackgroundImageFix"/>
<feGaussianBlur in="BackgroundImageFix" stdDeviation="19.395"/>
<feComposite in2="SourceAlpha" operator="in" result="effect1_backgroundBlur_4001_2134"/>
<feBlend mode="normal" in="SourceGraphic" in2="effect1_backgroundBlur_4001_2134" result="shape"/>
</filter>
<linearGradient id="paint0_linear_4001_2134" x1="234.833" y1="41.6064" x2="234.737" y2="35.8873" gradientUnits="userSpaceOnUse">
<stop offset="0.25" stop-color="#F99F55"/>
<stop offset="0.75" stop-color="#4C57FF"/>
</linearGradient>
</defs>
</svg>
