<svg width="248" height="156" viewBox="0 0 248 156" fill="none" xmlns="http://www.w3.org/2000/svg">
<g filter="url(#filter0_b_4001_2146)">
<rect x="0.418335" width="247.468" height="155.583" rx="20" fill="#F3F5FF" fill-opacity="0.3"/>
<path d="M11.2832 25.93C11.2832 26.1313 11.2328 26.3242 11.1322 26.5088C11.0315 26.6891 10.8826 26.8401 10.6855 26.9617C10.4926 27.0834 10.2598 27.1526 9.98719 27.1693V27.6789H9.64747V27.1693C9.26581 27.1358 8.95545 27.0142 8.71639 26.8045C8.47732 26.5906 8.35569 26.32 8.3515 25.9929H8.96174C8.97851 26.1691 9.04352 26.3221 9.15676 26.4522C9.2742 26.5822 9.43777 26.664 9.64747 26.6975V25.1247C9.36647 25.0534 9.13999 24.98 8.96803 24.9045C8.79607 24.829 8.64928 24.7116 8.52765 24.5522C8.40602 24.3929 8.34521 24.179 8.34521 23.9105C8.34521 23.5708 8.46264 23.2898 8.69751 23.0675C8.93657 22.8452 9.25323 22.7215 9.64747 22.6964V22.1742H9.98719V22.6964C10.3437 22.7257 10.631 22.8411 10.8491 23.0424C11.0672 23.2395 11.193 23.4974 11.2265 23.8162H10.6163C10.5953 23.6694 10.5303 23.5373 10.4213 23.4198C10.3122 23.2982 10.1675 23.2185 9.98719 23.1808V24.7158C10.264 24.7871 10.4884 24.8605 10.6603 24.936C10.8365 25.0073 10.9833 25.1226 11.1007 25.282C11.2223 25.4414 11.2832 25.6574 11.2832 25.93ZM8.93028 23.8791C8.93028 24.0846 8.9911 24.2419 9.11273 24.3509C9.23435 24.46 9.4126 24.5501 9.64747 24.6214V23.1682C9.42938 23.1892 9.25532 23.2605 9.12531 23.3821C8.99529 23.4995 8.93028 23.6652 8.93028 23.8791ZM9.98719 26.7038C10.2137 26.6786 10.3898 26.5968 10.5156 26.4584C10.6457 26.32 10.7107 26.1544 10.7107 25.9614C10.7107 25.7559 10.6478 25.5987 10.5219 25.4896C10.3961 25.3764 10.2179 25.2862 9.98719 25.2191V26.7038ZM12.2587 23.7281C12.2881 23.3422 12.437 23.0403 12.7054 22.8222C12.9738 22.6041 13.3219 22.495 13.7497 22.495C14.0349 22.495 14.2803 22.5475 14.4858 22.6523C14.6955 22.753 14.8528 22.8914 14.9576 23.0675C15.0667 23.2437 15.1212 23.4429 15.1212 23.6652C15.1212 23.9252 15.0457 24.1496 14.8947 24.3383C14.7479 24.5271 14.555 24.6487 14.3159 24.7032V24.7347C14.5885 24.8018 14.8045 24.9339 14.9639 25.131C15.1233 25.3281 15.203 25.5861 15.203 25.9048C15.203 26.1439 15.1484 26.3599 15.0394 26.5528C14.9303 26.7415 14.7668 26.8904 14.5487 26.9995C14.3306 27.1085 14.0685 27.163 13.7623 27.163C13.3177 27.163 12.9528 27.0477 12.6676 26.817C12.3824 26.5822 12.2231 26.2508 12.1895 25.823H12.7431C12.7725 26.0747 12.8753 26.2802 13.0514 26.4396C13.2276 26.5989 13.4624 26.6786 13.756 26.6786C14.0496 26.6786 14.2719 26.6031 14.4229 26.4522C14.578 26.297 14.6556 26.0978 14.6556 25.8545C14.6556 25.5399 14.5508 25.3135 14.3411 25.1751C14.1314 25.0367 13.8147 24.9674 13.3911 24.9674H13.2464V24.4893H13.3974C13.7833 24.4851 14.0748 24.4222 14.2719 24.3006C14.469 24.1748 14.5676 23.9818 14.5676 23.7218C14.5676 23.4995 14.4942 23.3213 14.3474 23.1871C14.2048 23.0529 13.9993 22.9857 13.7308 22.9857C13.4708 22.9857 13.2611 23.0529 13.1017 23.1871C12.9424 23.3213 12.848 23.5016 12.8186 23.7281H12.2587ZM20.5181 22.7781V27.1316H19.9456V23.8854L18.4987 27.1316H18.096L16.6428 23.8791V27.1316H16.0703V22.7781H16.6868L18.2974 26.3767L19.9079 22.7781H20.5181Z" fill="white"/>
<path d="M11.2833 52.5101C11.2833 52.7114 11.2329 52.9043 11.1323 53.0888C11.0316 53.2692 10.8827 53.4202 10.6856 53.5418C10.4927 53.6634 10.2599 53.7326 9.98728 53.7494V54.259H9.64756V53.7494C9.2659 53.7159 8.95554 53.5942 8.71648 53.3845C8.47741 53.1706 8.35579 52.9001 8.35159 52.573H8.96183C8.97861 52.7491 9.04361 52.9022 9.15685 53.0322C9.27429 53.1622 9.43786 53.244 9.64756 53.2776V51.7048C9.36656 51.6335 9.14008 51.5601 8.96812 51.4846C8.79616 51.4091 8.64937 51.2917 8.52774 51.1323C8.40612 50.9729 8.3453 50.759 8.3453 50.4906C8.3453 50.1509 8.46274 49.8699 8.6976 49.6476C8.93667 49.4253 9.25332 49.3016 9.64756 49.2764V48.7543H9.98728V49.2764C10.3438 49.3058 10.6311 49.4211 10.8492 49.6224C11.0673 49.8196 11.1931 50.0775 11.2266 50.3963H10.6164C10.5954 50.2495 10.5304 50.1173 10.4214 49.9999C10.3123 49.8783 10.1676 49.7986 9.98728 49.7609V51.2959C10.2641 51.3672 10.4885 51.4406 10.6604 51.5161C10.8366 51.5874 10.9834 51.7027 11.1008 51.8621C11.2224 52.0215 11.2833 52.2375 11.2833 52.5101ZM8.93037 50.4592C8.93037 50.6647 8.99119 50.822 9.11282 50.931C9.23445 51.04 9.41269 51.1302 9.64756 51.2015V49.7483C9.42947 49.7692 9.25542 49.8405 9.1254 49.9622C8.99538 50.0796 8.93037 50.2453 8.93037 50.4592ZM9.98728 53.2839C10.2138 53.2587 10.3899 53.1769 10.5157 53.0385C10.6458 52.9001 10.7108 52.7345 10.7108 52.5415C10.7108 52.336 10.6478 52.1787 10.522 52.0697C10.3962 51.9564 10.218 51.8663 9.98728 51.7992V53.2839ZM12.2022 53.2524C12.7348 52.8246 13.1522 52.4744 13.4541 52.2018C13.7561 51.925 14.0098 51.6377 14.2154 51.3399C14.4251 51.0379 14.5299 50.7423 14.5299 50.4529C14.5299 50.1803 14.4628 49.9664 14.3286 49.8112C14.1986 49.6518 13.9868 49.5721 13.6932 49.5721C13.408 49.5721 13.1857 49.6623 13.0263 49.8426C12.8712 50.0188 12.7873 50.2558 12.7747 50.5535H12.2211C12.2378 50.0838 12.3804 49.721 12.6489 49.4652C12.9173 49.2093 13.2633 49.0814 13.6869 49.0814C14.1189 49.0814 14.4607 49.2009 14.7123 49.44C14.9682 49.6791 15.0961 50.0083 15.0961 50.4277C15.0961 50.7758 14.9913 51.1155 14.7816 51.4469C14.576 51.774 14.3412 52.0634 14.0769 52.315C13.8127 52.5625 13.4751 52.8519 13.0641 53.1832H15.2282V53.6613H12.2022V53.2524ZM20.4322 49.3582V53.7117H19.8597V50.4655L18.4128 53.7117H18.0101L16.5569 50.4592V53.7117H15.9844V49.3582H16.6009L18.2114 52.9567L19.822 49.3582H20.4322Z" fill="white"/>
<path d="M11.2833 79.0899C11.2833 79.2912 11.2329 79.4841 11.1323 79.6687C11.0316 79.849 10.8827 80 10.6856 80.1216C10.4927 80.2433 10.2599 80.3125 9.98728 80.3293V80.8388H9.64756V80.3293C9.2659 80.2957 8.95554 80.1741 8.71648 79.9644C8.47741 79.7505 8.35579 79.48 8.35159 79.1528H8.96183C8.97861 79.329 9.04361 79.482 9.15685 79.6121C9.27429 79.7421 9.43786 79.8239 9.64756 79.8574V78.2846C9.36656 78.2133 9.14008 78.1399 8.96812 78.0645C8.79616 77.989 8.64937 77.8715 8.52774 77.7121C8.40612 77.5528 8.3453 77.3389 8.3453 77.0705C8.3453 76.7307 8.46274 76.4497 8.6976 76.2274C8.93667 76.0052 9.25332 75.8814 9.64756 75.8563V75.3341H9.98728V75.8563C10.3438 75.8856 10.6311 76.001 10.8492 76.2023C11.0673 76.3994 11.1931 76.6573 11.2266 76.9761H10.6164C10.5954 76.8293 10.5304 76.6972 10.4214 76.5797C10.3123 76.4581 10.1676 76.3784 9.98728 76.3407V77.8757C10.2641 77.947 10.4885 78.0204 10.6604 78.0959C10.8366 78.1672 10.9834 78.2825 11.1008 78.4419C11.2224 78.6013 11.2833 78.8173 11.2833 79.0899ZM8.93037 77.039C8.93037 77.2445 8.99119 77.4018 9.11282 77.5108C9.23445 77.6199 9.41269 77.7101 9.64756 77.7813V76.3281C9.42947 76.3491 9.25542 76.4204 9.1254 76.542C8.99538 76.6594 8.93037 76.8251 8.93037 77.039ZM9.98728 79.8637C10.2138 79.8385 10.3899 79.7568 10.5157 79.6184C10.6458 79.48 10.7108 79.3143 10.7108 79.1214C10.7108 78.9158 10.6478 78.7586 10.522 78.6495C10.3962 78.5363 10.218 78.4461 9.98728 78.379V79.8637ZM12.1204 76.2652V75.743H13.3031V80.2915H12.7244V76.2652H12.1204ZM18.8287 75.9381V80.2915H18.2562V77.0453L16.8093 80.2915H16.4066L14.9534 77.039V80.2915H14.3809V75.9381H14.9974L16.6079 79.5366L18.2185 75.9381H18.8287Z" fill="white"/>
<path d="M11.2833 105.67C11.2833 105.871 11.2329 106.064 11.1323 106.249C11.0316 106.429 10.8827 106.58 10.6856 106.702C10.4927 106.823 10.2599 106.893 9.98728 106.909V107.419H9.64756V106.909C9.2659 106.876 8.95554 106.754 8.71648 106.544C8.47741 106.331 8.35579 106.06 8.35159 105.733H8.96183C8.97861 105.909 9.04361 106.062 9.15685 106.192C9.27429 106.322 9.43786 106.404 9.64756 106.437V104.865C9.36656 104.793 9.14008 104.72 8.96812 104.645C8.79616 104.569 8.64937 104.452 8.52774 104.292C8.40612 104.133 8.3453 103.919 8.3453 103.651C8.3453 103.311 8.46274 103.03 8.6976 102.808C8.93667 102.585 9.25332 102.462 9.64756 102.436V101.914H9.98728V102.436C10.3438 102.466 10.6311 102.581 10.8492 102.782C11.0673 102.979 11.1931 103.237 11.2266 103.556H10.6164C10.5954 103.409 10.5304 103.277 10.4214 103.16C10.3123 103.038 10.1676 102.959 9.98728 102.921V104.456C10.2641 104.527 10.4885 104.6 10.6604 104.676C10.8366 104.747 10.9834 104.863 11.1008 105.022C11.2224 105.181 11.2833 105.397 11.2833 105.67ZM8.93037 103.619C8.93037 103.825 8.99119 103.982 9.11282 104.091C9.23445 104.2 9.41269 104.29 9.64756 104.361V102.908C9.42947 102.929 9.25542 103 9.1254 103.122C8.99538 103.24 8.93037 103.405 8.93037 103.619ZM9.98728 106.444C10.2138 106.419 10.3899 106.337 10.5157 106.198C10.6458 106.06 10.7108 105.894 10.7108 105.701C10.7108 105.496 10.6478 105.339 10.522 105.23C10.3962 105.116 10.218 105.026 9.98728 104.959V106.444ZM12.2714 104.55C12.2714 103.829 12.3888 103.267 12.6237 102.864C12.8586 102.457 13.2696 102.254 13.8568 102.254C14.4397 102.254 14.8487 102.457 15.0835 102.864C15.3184 103.267 15.4358 103.829 15.4358 104.55C15.4358 105.284 15.3184 105.855 15.0835 106.261C14.8487 106.668 14.4397 106.872 13.8568 106.872C13.2696 106.872 12.8586 106.668 12.6237 106.261C12.3888 105.855 12.2714 105.284 12.2714 104.55ZM14.8696 104.55C14.8696 104.185 14.8445 103.877 14.7941 103.625C14.748 103.37 14.6494 103.164 14.4985 103.009C14.3517 102.854 14.1378 102.776 13.8568 102.776C13.5716 102.776 13.3535 102.854 13.2025 103.009C13.0557 103.164 12.9571 103.37 12.9068 103.625C12.8607 103.877 12.8376 104.185 12.8376 104.55C12.8376 104.928 12.8607 105.244 12.9068 105.5C12.9571 105.756 13.0557 105.961 13.2025 106.117C13.3535 106.272 13.5716 106.349 13.8568 106.349C14.1378 106.349 14.3517 106.272 14.4985 106.117C14.6494 105.961 14.748 105.756 14.7941 105.5C14.8445 105.244 14.8696 104.928 14.8696 104.55Z" fill="white"/>
<path d="M10.8429 130.904V131.388H8.33272V130.904H10.8429ZM14.7483 132.25C14.7483 132.451 14.6979 132.644 14.5973 132.829C14.4966 133.009 14.3477 133.16 14.1506 133.282C13.9577 133.403 13.7249 133.472 13.4523 133.489V133.999H13.1126V133.489C12.7309 133.456 12.4206 133.334 12.1815 133.124C11.9424 132.91 11.8208 132.64 11.8166 132.313H12.4269C12.4436 132.489 12.5086 132.642 12.6219 132.772C12.7393 132.902 12.9029 132.984 13.1126 133.017V131.445C12.8316 131.373 12.6051 131.3 12.4331 131.224C12.2612 131.149 12.1144 131.031 11.9928 130.872C11.8711 130.713 11.8103 130.499 11.8103 130.23C11.8103 129.891 11.9278 129.61 12.1626 129.387C12.4017 129.165 12.7183 129.041 13.1126 129.016V128.494H13.4523V129.016C13.8088 129.046 14.0961 129.161 14.3142 129.362C14.5323 129.559 14.6581 129.817 14.6917 130.136H14.0814C14.0604 129.989 13.9954 129.857 13.8864 129.74C13.7773 129.618 13.6327 129.538 13.4523 129.501V131.036C13.7291 131.107 13.9535 131.18 14.1255 131.256C14.3016 131.327 14.4484 131.442 14.5658 131.602C14.6875 131.761 14.7483 131.977 14.7483 132.25ZM12.3954 130.199C12.3954 130.404 12.4562 130.562 12.5778 130.671C12.6995 130.78 12.8777 130.87 13.1126 130.941V129.488C12.8945 129.509 12.7204 129.58 12.5904 129.702C12.4604 129.819 12.3954 129.985 12.3954 130.199ZM13.4523 133.024C13.6788 132.998 13.8549 132.917 13.9808 132.778C14.1108 132.64 14.1758 132.474 14.1758 132.281C14.1758 132.076 14.1129 131.918 13.9871 131.809C13.8612 131.696 13.683 131.606 13.4523 131.539V133.024ZM15.5854 129.425V128.903H16.7682V133.451H16.1894V129.425H15.5854ZM22.2937 129.098V133.451H21.7212V130.205L20.2743 133.451H19.8717L18.4184 130.199V133.451H17.8459V129.098H18.4624L20.073 132.696L21.6835 129.098H22.2937Z" fill="white"/>
<path d="M35.2791 84.5439C39.9032 80.0042 46.0136 76.7917 52.7101 78.3788C56.4029 79.3609 60.6221 83.0347 63.8045 83.7482C66.5168 84.3608 68.2314 82.9698 69.8621 80.4357C71.4917 77.8469 72.6788 74.5531 74.1724 71.8053C77.0258 65.4832 80.6652 60.0629 88.0577 57.8597C95.9878 55.4962 101.514 64.4566 108.613 63.0186C116.623 61.1847 122.57 44.6621 130.807 43.2147C134.823 42.5051 142.092 49.372 145.878 47.8449C153.88 44.9907 160.785 29.11 169.093 38.6354C173.229 43.2842 174.231 50.6043 179.153 54.5231C186.538 59.0727 190.224 48.637 191.613 43.2147C193.13 36.6703 200.544 23.6065 209.33 31.9167C212.85 35.3094 213.012 36.516 216.746 39.2682C223.988 43.6255 232.129 22.1178 241.056 23.7484" stroke="#4C57FF" stroke-width="1.5" stroke-miterlimit="10" stroke-linecap="round"/>
<path opacity="0.24" d="M241.628 130.242H35.2791V84.1379C39.9419 79.6316 46.0994 76.4353 52.8492 78.0149C56.572 78.9905 60.8211 82.642 64.0362 83.3481C66.7719 83.9521 68.5016 82.577 70.1468 80.059C71.7919 77.4852 72.9858 74.2147 74.49 71.483C77.3666 65.202 81.0789 59.8294 88.4878 57.6295C96.4756 55.2577 102.053 64.1799 109.207 62.749C117.283 60.9279 123.271 44.5193 131.581 43.0791C135.633 42.3729 141.453 48.8396 145.269 47.3158C153.335 44.4819 161.805 29.0676 170.172 38.5263C174.336 43.1441 175.352 50.41 180.315 54.3031C187.761 58.8188 191.502 44.9931 192.903 39.6041C194.435 33.1001 199.341 23.618 208.196 31.8687C211.74 35.2415 214.017 35.4322 217.787 38.1639C226.029 43.0593 232.9 20.548 241.628 22.1128V130.242Z" fill="url(#paint0_linear_4001_2146)"/>
</g>
<defs>
<filter id="filter0_b_4001_2146" x="-17.6924" y="-18.1107" width="283.69" height="191.805" filterUnits="userSpaceOnUse" color-interpolation-filters="sRGB">
<feFlood flood-opacity="0" result="BackgroundImageFix"/>
<feGaussianBlur in="BackgroundImageFix" stdDeviation="9.05537"/>
<feComposite in2="SourceAlpha" operator="in" result="effect1_backgroundBlur_4001_2146"/>
<feBlend mode="normal" in="SourceGraphic" in2="effect1_backgroundBlur_4001_2146" result="shape"/>
</filter>
<linearGradient id="paint0_linear_4001_2146" x1="138.418" y1="46.0001" x2="138.453" y2="130.242" gradientUnits="userSpaceOnUse">
<stop stop-color="#4C57FF"/>
<stop offset="1" stop-color="#4C57FF" stop-opacity="0.11"/>
</linearGradient>
</defs>
</svg>
