<svg width="161" height="78" viewBox="0 0 161 78" fill="none" xmlns="http://www.w3.org/2000/svg">
<g filter="url(#filter0_b_4001_2173)">
<rect x="0.615479" width="159.819" height="77.5" rx="12" fill="#F3F5FF" fill-opacity="0.22"/>
<path d="M32.7535 16.66V21.976C32.7535 22.608 32.9175 23.084 33.2455 23.404C33.5815 23.724 34.0455 23.884 34.6375 23.884C35.2375 23.884 35.7015 23.724 36.0295 23.404C36.3655 23.084 36.5335 22.608 36.5335 21.976V16.66H37.9015V21.952C37.9015 22.632 37.7535 23.208 37.4575 23.68C37.1615 24.152 36.7655 24.504 36.2695 24.736C35.7735 24.968 35.2255 25.084 34.6255 25.084C34.0255 25.084 33.4775 24.968 32.9815 24.736C32.4935 24.504 32.1055 24.152 31.8175 23.68C31.5295 23.208 31.3855 22.632 31.3855 21.952V16.66H32.7535ZM41.0506 19.36C41.2826 19.056 41.5986 18.8 41.9986 18.592C42.3986 18.384 42.8506 18.28 43.3546 18.28C43.9306 18.28 44.4546 18.424 44.9266 18.712C45.4066 18.992 45.7826 19.388 46.0546 19.9C46.3266 20.412 46.4626 21 46.4626 21.664C46.4626 22.328 46.3266 22.924 46.0546 23.452C45.7826 23.972 45.4066 24.38 44.9266 24.676C44.4546 24.964 43.9306 25.108 43.3546 25.108C42.8506 25.108 42.4026 25.008 42.0106 24.808C41.6186 24.6 41.2986 24.344 41.0506 24.04V28.144H39.6826V18.388H41.0506V19.36ZM45.0706 21.664C45.0706 21.208 44.9746 20.816 44.7826 20.488C44.5986 20.152 44.3506 19.9 44.0386 19.732C43.7346 19.556 43.4066 19.468 43.0546 19.468C42.7106 19.468 42.3826 19.556 42.0706 19.732C41.7666 19.908 41.5186 20.164 41.3266 20.5C41.1426 20.836 41.0506 21.232 41.0506 21.688C41.0506 22.144 41.1426 22.544 41.3266 22.888C41.5186 23.224 41.7666 23.48 42.0706 23.656C42.3826 23.832 42.7106 23.92 43.0546 23.92C43.4066 23.92 43.7346 23.832 44.0386 23.656C44.3506 23.472 44.5986 23.208 44.7826 22.864C44.9746 22.52 45.0706 22.12 45.0706 21.664ZM47.3594 21.688C47.3594 21.008 47.4954 20.412 47.7674 19.9C48.0474 19.38 48.4314 18.98 48.9194 18.7C49.4074 18.42 49.9674 18.28 50.5994 18.28C51.3994 18.28 52.0594 18.472 52.5794 18.856C53.1074 19.232 53.4634 19.772 53.6474 20.476H52.1714C52.0514 20.148 51.8594 19.892 51.5954 19.708C51.3314 19.524 50.9994 19.432 50.5994 19.432C50.0394 19.432 49.5914 19.632 49.2554 20.032C48.9274 20.424 48.7634 20.976 48.7634 21.688C48.7634 22.4 48.9274 22.956 49.2554 23.356C49.5914 23.756 50.0394 23.956 50.5994 23.956C51.3914 23.956 51.9154 23.608 52.1714 22.912H53.6474C53.4554 23.584 53.0954 24.12 52.5674 24.52C52.0394 24.912 51.3834 25.108 50.5994 25.108C49.9674 25.108 49.4074 24.968 48.9194 24.688C48.4314 24.4 48.0474 24 47.7674 23.488C47.4954 22.968 47.3594 22.368 47.3594 21.688ZM57.8787 25.108C57.2547 25.108 56.6907 24.968 56.1867 24.688C55.6827 24.4 55.2867 24 54.9987 23.488C54.7107 22.968 54.5667 22.368 54.5667 21.688C54.5667 21.016 54.7147 20.42 55.0107 19.9C55.3067 19.38 55.7107 18.98 56.2227 18.7C56.7347 18.42 57.3067 18.28 57.9387 18.28C58.5707 18.28 59.1427 18.42 59.6547 18.7C60.1667 18.98 60.5707 19.38 60.8667 19.9C61.1627 20.42 61.3107 21.016 61.3107 21.688C61.3107 22.36 61.1587 22.956 60.8547 23.476C60.5507 23.996 60.1347 24.4 59.6067 24.688C59.0867 24.968 58.5107 25.108 57.8787 25.108ZM57.8787 23.92C58.2307 23.92 58.5587 23.836 58.8627 23.668C59.1747 23.5 59.4267 23.248 59.6187 22.912C59.8107 22.576 59.9067 22.168 59.9067 21.688C59.9067 21.208 59.8147 20.804 59.6307 20.476C59.4467 20.14 59.2027 19.888 58.8987 19.72C58.5947 19.552 58.2667 19.468 57.9147 19.468C57.5627 19.468 57.2347 19.552 56.9307 19.72C56.6347 19.888 56.3987 20.14 56.2227 20.476C56.0467 20.804 55.9587 21.208 55.9587 21.688C55.9587 22.4 56.1387 22.952 56.4987 23.344C56.8667 23.728 57.3267 23.92 57.8787 23.92ZM70.6671 18.28C71.1871 18.28 71.6511 18.388 72.0591 18.604C72.4751 18.82 72.7991 19.14 73.0311 19.564C73.2711 19.988 73.3911 20.5 73.3911 21.1V25H72.0351V21.304C72.0351 20.712 71.8871 20.26 71.5911 19.948C71.2951 19.628 70.8911 19.468 70.3791 19.468C69.8671 19.468 69.4591 19.628 69.1551 19.948C68.8591 20.26 68.7111 20.712 68.7111 21.304V25H67.3551V21.304C67.3551 20.712 67.2071 20.26 66.9111 19.948C66.6151 19.628 66.2111 19.468 65.6991 19.468C65.1871 19.468 64.7791 19.628 64.4751 19.948C64.1791 20.26 64.0311 20.712 64.0311 21.304V25H62.6631V18.388H64.0311V19.144C64.2551 18.872 64.5391 18.66 64.8831 18.508C65.2271 18.356 65.5951 18.28 65.9871 18.28C66.5151 18.28 66.9871 18.392 67.4031 18.616C67.8191 18.84 68.1391 19.164 68.3631 19.588C68.5631 19.188 68.8751 18.872 69.2991 18.64C69.7231 18.4 70.1791 18.28 70.6671 18.28ZM75.8278 17.512C75.5798 17.512 75.3718 17.428 75.2038 17.26C75.0358 17.092 74.9518 16.884 74.9518 16.636C74.9518 16.388 75.0358 16.18 75.2038 16.012C75.3718 15.844 75.5798 15.76 75.8278 15.76C76.0678 15.76 76.2718 15.844 76.4398 16.012C76.6078 16.18 76.6918 16.388 76.6918 16.636C76.6918 16.884 76.6078 17.092 76.4398 17.26C76.2718 17.428 76.0678 17.512 75.8278 17.512ZM76.4998 18.388V25H75.1318V18.388H76.4998ZM81.6319 18.28C82.1519 18.28 82.6159 18.388 83.0239 18.604C83.4399 18.82 83.7639 19.14 83.9959 19.564C84.2279 19.988 84.3439 20.5 84.3439 21.1V25H82.9879V21.304C82.9879 20.712 82.8399 20.26 82.5439 19.948C82.2479 19.628 81.8439 19.468 81.3319 19.468C80.8199 19.468 80.4119 19.628 80.1079 19.948C79.8119 20.26 79.6639 20.712 79.6639 21.304V25H78.2959V18.388H79.6639V19.144C79.8879 18.872 80.1719 18.66 80.5159 18.508C80.8679 18.356 81.2399 18.28 81.6319 18.28ZM88.7529 18.28C89.2649 18.28 89.7169 18.384 90.1089 18.592C90.5089 18.792 90.8209 19.044 91.0449 19.348V18.388H92.4249V25.108C92.4249 25.716 92.2969 26.256 92.0409 26.728C91.7849 27.208 91.4129 27.584 90.9249 27.856C90.4449 28.128 89.8689 28.264 89.1969 28.264C88.3009 28.264 87.5569 28.052 86.9649 27.628C86.3729 27.212 86.0369 26.644 85.9569 25.924H87.3129C87.4169 26.268 87.6369 26.544 87.9729 26.752C88.3169 26.968 88.7249 27.076 89.1969 27.076C89.7489 27.076 90.1929 26.908 90.5289 26.572C90.8729 26.236 91.0449 25.748 91.0449 25.108V24.004C90.8129 24.316 90.4969 24.58 90.0969 24.796C89.7049 25.004 89.2569 25.108 88.7529 25.108C88.1769 25.108 87.6489 24.964 87.1689 24.676C86.6969 24.38 86.3209 23.972 86.0409 23.452C85.7689 22.924 85.6329 22.328 85.6329 21.664C85.6329 21 85.7689 20.412 86.0409 19.9C86.3209 19.388 86.6969 18.992 87.1689 18.712C87.6489 18.424 88.1769 18.28 88.7529 18.28ZM91.0449 21.688C91.0449 21.232 90.9489 20.836 90.7569 20.5C90.5729 20.164 90.3289 19.908 90.0249 19.732C89.7209 19.556 89.3929 19.468 89.0409 19.468C88.6889 19.468 88.3609 19.556 88.0569 19.732C87.7529 19.9 87.5049 20.152 87.3129 20.488C87.1289 20.816 87.0369 21.208 87.0369 21.664C87.0369 22.12 87.1289 22.52 87.3129 22.864C87.5049 23.208 87.7529 23.472 88.0569 23.656C88.3689 23.832 88.6969 23.92 89.0409 23.92C89.3929 23.92 89.7209 23.832 90.0249 23.656C90.3289 23.48 90.5729 23.224 90.7569 22.888C90.9489 22.544 91.0449 22.144 91.0449 21.688ZM100.111 19.504H98.8869V25H97.5069V19.504H96.7269V18.388H97.5069V17.92C97.5069 17.16 97.7069 16.608 98.1069 16.264C98.5149 15.912 99.1509 15.736 100.015 15.736V16.876C99.5989 16.876 99.3069 16.956 99.1389 17.116C98.9709 17.268 98.8869 17.536 98.8869 17.92V18.388H100.111V19.504ZM107.311 18.388V25H105.943V24.22C105.727 24.492 105.443 24.708 105.091 24.868C104.747 25.02 104.379 25.096 103.987 25.096C103.467 25.096 102.999 24.988 102.583 24.772C102.175 24.556 101.851 24.236 101.611 23.812C101.379 23.388 101.263 22.876 101.263 22.276V18.388H102.619V22.072C102.619 22.664 102.767 23.12 103.063 23.44C103.359 23.752 103.763 23.908 104.275 23.908C104.787 23.908 105.191 23.752 105.487 23.44C105.791 23.12 105.943 22.664 105.943 22.072V18.388H107.311ZM112.452 18.28C112.972 18.28 113.436 18.388 113.844 18.604C114.26 18.82 114.584 19.14 114.816 19.564C115.048 19.988 115.164 20.5 115.164 21.1V25H113.808V21.304C113.808 20.712 113.66 20.26 113.364 19.948C113.068 19.628 112.664 19.468 112.152 19.468C111.64 19.468 111.232 19.628 110.928 19.948C110.632 20.26 110.484 20.712 110.484 21.304V25H109.116V18.388H110.484V19.144C110.708 18.872 110.992 18.66 111.336 18.508C111.688 18.356 112.06 18.28 112.452 18.28ZM116.453 21.664C116.453 21 116.589 20.412 116.861 19.9C117.141 19.388 117.517 18.992 117.989 18.712C118.469 18.424 119.001 18.28 119.585 18.28C120.017 18.28 120.441 18.376 120.857 18.568C121.281 18.752 121.617 19 121.865 19.312V16.12H123.245V25H121.865V24.004C121.641 24.324 121.329 24.588 120.929 24.796C120.537 25.004 120.085 25.108 119.573 25.108C118.997 25.108 118.469 24.964 117.989 24.676C117.517 24.38 117.141 23.972 116.861 23.452C116.589 22.924 116.453 22.328 116.453 21.664ZM121.865 21.688C121.865 21.232 121.769 20.836 121.577 20.5C121.393 20.164 121.149 19.908 120.845 19.732C120.541 19.556 120.213 19.468 119.861 19.468C119.509 19.468 119.181 19.556 118.877 19.732C118.573 19.9 118.325 20.152 118.133 20.488C117.949 20.816 117.857 21.208 117.857 21.664C117.857 22.12 117.949 22.52 118.133 22.864C118.325 23.208 118.573 23.472 118.877 23.656C119.189 23.832 119.517 23.92 119.861 23.92C120.213 23.92 120.541 23.832 120.845 23.656C121.149 23.48 121.393 23.224 121.577 22.888C121.769 22.544 121.865 22.144 121.865 21.688ZM127.442 25.108C126.922 25.108 126.454 25.016 126.038 24.832C125.63 24.64 125.306 24.384 125.066 24.064C124.826 23.736 124.698 23.372 124.682 22.972H126.098C126.122 23.252 126.254 23.488 126.494 23.68C126.742 23.864 127.05 23.956 127.418 23.956C127.802 23.956 128.098 23.884 128.306 23.74C128.522 23.588 128.63 23.396 128.63 23.164C128.63 22.916 128.51 22.732 128.27 22.612C128.038 22.492 127.666 22.36 127.154 22.216C126.658 22.08 126.254 21.948 125.942 21.82C125.63 21.692 125.358 21.496 125.126 21.232C124.902 20.968 124.79 20.62 124.79 20.188C124.79 19.836 124.894 19.516 125.102 19.228C125.31 18.932 125.606 18.7 125.99 18.532C126.382 18.364 126.83 18.28 127.334 18.28C128.086 18.28 128.69 18.472 129.146 18.856C129.61 19.232 129.858 19.748 129.89 20.404H128.522C128.498 20.108 128.378 19.872 128.162 19.696C127.946 19.52 127.654 19.432 127.286 19.432C126.926 19.432 126.65 19.5 126.458 19.636C126.266 19.772 126.17 19.952 126.17 20.176C126.17 20.352 126.234 20.5 126.362 20.62C126.49 20.74 126.646 20.836 126.83 20.908C127.014 20.972 127.286 21.056 127.646 21.16C128.126 21.288 128.518 21.42 128.822 21.556C129.134 21.684 129.402 21.876 129.626 22.132C129.85 22.388 129.966 22.728 129.974 23.152C129.974 23.528 129.87 23.864 129.662 24.16C129.454 24.456 129.158 24.688 128.774 24.856C128.398 25.024 127.954 25.108 127.442 25.108Z" fill="#F2F2F3"/>
<path d="M21.8539 46.0474H25.2475" stroke="#4C57FF" stroke-width="1.46107" stroke-linecap="round" stroke-linejoin="round"/>
<path d="M25.2532 46.1204C26.9807 47.3207 29.9559 50.8204 29.9559 53.4189C29.9559 56.0496 28.854 58.1819 23.525 58.1819C18.1959 58.1819 17.094 56.0496 17.094 53.4189C17.094 50.8204 20.0692 47.3207 21.7967 46.1204C21.3666 45.2996 18.9384 44.0153 19.2692 42.9954C19.7678 41.4581 27.2405 41.3936 27.7753 42.9937C28.1156 44.0116 25.6821 45.3014 25.2532 46.1204Z" stroke="#4C57FF" stroke-width="1.46107" stroke-linecap="round" stroke-linejoin="round"/>
<path d="M23.4868 49.7054V48.6567" stroke="#4C57FF" stroke-width="1.46107" stroke-linecap="round" stroke-linejoin="round"/>
<path d="M25.2245 49.7043H22.6719C22.4241 49.7043 22.1864 49.803 22.0111 49.9787C21.8359 50.1544 21.7374 50.3927 21.7374 50.6411C21.7359 50.8281 21.7912 51.0111 21.8958 51.1659C22.0004 51.3207 22.1495 51.44 22.3232 51.508L24.6387 52.0883C24.8432 52.1674 25.0134 52.3161 25.1197 52.5083C25.2259 52.7005 25.2613 52.924 25.2198 53.1398C25.1782 53.3555 25.0623 53.5498 24.8924 53.6885C24.7224 53.8273 24.5092 53.9018 24.29 53.8989H21.7374" stroke="#4C57FF" stroke-width="1.46107" stroke-linecap="round" stroke-linejoin="round"/>
<path d="M23.4794 54.9478V53.8992" stroke="#4C57FF" stroke-width="1.46107" stroke-linecap="round" stroke-linejoin="round"/>
<path d="M44.7061 59.488V57.22C43.2781 56.968 42.2421 56.52 41.7381 56.52C41.3181 56.52 41.2341 56.772 41.0101 57.36H40.5061L40.2261 51.144H40.8421C41.5701 53.692 42.6901 55.624 44.7061 56.324V48.82C42.1021 47.952 40.5341 46.58 40.5341 43.724C40.5341 41.316 41.9061 38.964 44.7061 38.32V35.94H45.5741V38.18C45.7701 38.18 45.9661 38.152 46.1901 38.152C46.5541 38.152 46.8901 38.18 47.2261 38.236V35.94H48.0941V38.376C49.1301 38.628 49.8301 39.02 50.3901 39.02C50.7821 39.02 50.8941 38.824 51.0901 38.46H51.5101L51.6501 43.724H51.0621C50.4181 41.54 49.5781 39.972 48.0941 39.3V45.852C50.5301 46.664 52.6581 47.98 52.6581 51.368C52.6581 54.28 51.0061 56.576 48.0941 57.192V59.488H47.2261V57.332C46.9741 57.36 46.6941 57.36 46.4421 57.36C46.1341 57.36 45.8541 57.36 45.5741 57.332V59.488H44.7061ZM50.8101 52.964C50.8101 51.368 49.8301 50.528 48.0941 49.856V56.352C49.7461 55.876 50.8101 54.672 50.8101 52.964ZM46.4701 56.576C46.7221 56.576 46.9741 56.576 47.2261 56.548V49.548C46.7221 49.38 46.1621 49.24 45.5741 49.1V56.52C45.8541 56.548 46.1341 56.576 46.4701 56.576ZM45.5741 45.124L47.2261 45.6V39.048C46.8901 38.964 46.5541 38.936 46.1901 38.936C45.9661 38.936 45.7701 38.964 45.5741 38.964V45.124ZM42.4661 41.932C42.4661 43.444 43.3341 44.228 44.7061 44.816V39.132C43.2501 39.524 42.4661 40.56 42.4661 41.932ZM61.2102 37.592C64.8222 37.592 66.9222 39.244 66.9222 41.932C66.9222 44.284 65.1582 45.852 62.1342 46.776C66.1382 47.308 67.9022 49.296 67.9022 51.956C67.9022 55.512 64.8222 57.78 60.3142 57.78C57.5982 57.78 54.9382 56.716 54.9382 54C54.9382 52.712 55.6102 51.788 56.8422 51.788C57.9062 51.788 58.6622 52.432 58.6622 53.468C58.6622 53.916 58.5782 54.364 58.4382 54.784H57.5702C57.4862 55.008 57.4302 55.204 57.4302 55.4C57.4302 56.296 58.6062 56.912 60.2862 56.912C62.9742 56.912 64.1782 55.288 64.1782 52.04C64.1782 49.072 62.8342 47.924 61.1822 47.252C60.2862 47.448 59.6422 47.56 58.5222 47.672L58.4382 46.832C61.5182 46.58 63.3942 45.796 63.3942 42.1C63.3942 39.412 62.4142 38.46 60.5662 38.46C58.9982 38.46 58.0742 39.188 58.0742 40.056C58.0742 40.224 58.1022 40.392 58.1582 40.56H58.9422C59.0822 40.924 59.1662 41.372 59.1662 41.764C59.1662 42.744 58.4382 43.36 57.4582 43.36C56.2542 43.36 55.6662 42.52 55.6662 41.316C55.6662 38.88 58.2142 37.592 61.2102 37.592ZM72.1164 54.924C72.1164 52.88 73.0964 50.948 77.1284 45.096L80.2084 40.616H73.6284C70.9964 40.616 70.6604 40.98 70.1844 43.444H69.5964L69.8204 37.9H81.9164V39.356L80.2364 42.436C76.0924 50.164 75.7004 52.908 75.7004 54.784C75.7004 55.68 75.8964 56.296 76.2884 56.996L75.6164 57.752C73.3204 57.864 72.1164 56.744 72.1164 54.924ZM82.8887 47.672C82.8887 40.364 86.2487 37.592 90.3087 37.592C94.4247 37.592 97.7007 40.308 97.7007 47.672C97.7007 55.036 94.3407 57.78 90.3087 57.78C85.2687 57.78 82.8887 53.524 82.8887 47.672ZM86.6407 47.728C86.6407 54.504 87.4807 56.912 90.3087 56.912C93.1927 56.912 93.9767 54.476 93.9767 47.756C93.9767 41.008 93.0527 38.46 90.3087 38.46C87.6207 38.46 86.6407 41.064 86.6407 47.728ZM100.781 61.84L100.361 61.308C102.461 59.404 102.713 58.34 102.713 57.556C102.713 56.94 102.461 56.632 102.097 56.576L101.061 57.528C100.389 57.304 99.605 56.632 99.605 55.54C99.605 54.336 100.557 53.58 101.621 53.58C103.357 53.58 104.085 54.952 104.085 56.548C104.085 58.508 103.133 60.048 100.781 61.84ZM109.736 38.852L106.292 39.16L106.208 38.348L111.976 37.592H113.292V56.688H115.98V57.5H106.6V56.688H109.736V38.852ZM130.832 46.804C130.832 54.224 127.808 57.78 123.048 57.78C119.828 57.78 118.204 55.96 118.204 54.196C118.204 52.824 118.904 51.928 120.052 51.928C121.088 51.928 121.872 52.544 121.872 53.72C121.872 54.056 121.816 54.364 121.732 54.672H120.92C120.78 54.952 120.724 55.232 120.724 55.456C120.724 56.324 121.62 56.912 123.02 56.912C125.82 56.912 127.22 54.616 127.22 48.092C126.324 49.52 124.924 50.276 122.964 50.276C119.884 50.276 117.448 48.288 117.448 44.088C117.448 40 120.108 37.62 124.196 37.62C128.368 37.62 130.832 40.42 130.832 46.804ZM126.688 47.42C127.052 46.776 127.164 46.104 127.164 44.508C127.164 40.504 126.548 38.488 124.14 38.488C121.648 38.488 121.06 40.504 121.06 43.724C121.06 47.784 121.788 49.24 123.664 49.24C125.064 49.24 126.016 48.54 126.688 47.42ZM132.654 47.672C132.654 40.364 136.014 37.592 140.074 37.592C144.19 37.592 147.466 40.308 147.466 47.672C147.466 55.036 144.106 57.78 140.074 57.78C135.034 57.78 132.654 53.524 132.654 47.672ZM136.406 47.728C136.406 54.504 137.246 56.912 140.074 56.912C142.958 56.912 143.742 54.476 143.742 47.756C143.742 41.008 142.818 38.46 140.074 38.46C137.386 38.46 136.406 41.064 136.406 47.728Z" fill="white"/>
</g>
<defs>
<filter id="filter0_b_4001_2173" x="-38.1745" y="-38.79" width="237.399" height="155.08" filterUnits="userSpaceOnUse" color-interpolation-filters="sRGB">
<feFlood flood-opacity="0" result="BackgroundImageFix"/>
<feGaussianBlur in="BackgroundImageFix" stdDeviation="19.395"/>
<feComposite in2="SourceAlpha" operator="in" result="effect1_backgroundBlur_4001_2173"/>
<feBlend mode="normal" in="SourceGraphic" in2="effect1_backgroundBlur_4001_2173" result="shape"/>
</filter>
</defs>
</svg>
